<svg viewBox="0 0 40 40" fill="none" xmlns="http://www.w3.org/2000/svg">
<path d="M22.4951 0.104151C22.3076 0.160408 21.2793 0.463575 20.2136 0.776117C19.1478 1.08866 17.5663 1.55122 16.6975 1.80751C11.178 3.4296 7.43371 4.52663 6.13354 4.90793C5.5397 5.08296 5.04276 5.2361 5.02401 5.25173C5.00526 5.26735 5.03026 5.31111 5.08652 5.36737C5.21779 5.49238 20.6418 17.7941 20.7855 17.8847C20.848 17.9253 20.9449 17.9691 21.0012 17.9816C21.17 18.016 21.0418 18.0566 24.7298 16.7783C25.5799 16.4814 26.6363 16.1157 27.0739 15.9657C27.5114 15.8125 28.3991 15.5063 29.0429 15.2843C29.6867 15.0593 31.1088 14.5686 32.1996 14.1904C33.2904 13.8123 34.8812 13.2622 35.7313 12.9653C36.5814 12.6715 37.6628 12.2964 38.1348 12.1339C38.6036 11.9714 39.0286 11.8182 39.0786 11.7901C39.188 11.7339 39.1943 11.6839 39.1005 11.5995C38.8911 11.4119 23.4953 0.182287 23.3265 0.0979004C23.0733 -0.0333672 22.9452 -0.0333672 22.4951 0.104151ZM21.8513 1.56998C22.8264 1.745 23.5984 2.1138 24.1172 2.65137C24.8705 3.4296 24.5579 4.26097 23.3984 4.55788C22.1295 4.88293 20.3386 4.44849 19.4416 3.59525C18.5008 2.70138 19.0259 1.71687 20.5449 1.52935C20.848 1.48871 21.52 1.51372 21.8513 1.56998ZM11.7906 4.54226C12.3625 4.61727 12.8251 4.74853 13.2876 4.96731C14.3253 5.45176 14.8691 6.22061 14.5941 6.81757C14.4409 7.15511 14.0627 7.41765 13.522 7.56142C13.2064 7.6458 12.3875 7.67706 11.9656 7.6208C11.328 7.53641 10.6341 7.30201 10.131 7.00822C9.75903 6.78944 9.35585 6.38938 9.22146 6.10497C9.13394 5.92057 9.11832 5.85181 9.11832 5.66741C9.12144 5.20797 9.43399 4.87355 10.0497 4.66727C10.5435 4.50475 11.1717 4.45787 11.7906 4.54226ZM26.7457 5.31111C27.974 5.45801 29.1335 6.09247 29.5023 6.82069C29.6211 7.05197 29.6367 7.36452 29.543 7.58017C29.2367 8.29902 27.8802 8.61781 26.4769 8.30839C25.283 8.04273 24.3173 7.39577 24.1016 6.71443C23.9391 6.19873 24.2391 5.72367 24.8861 5.47051C25.408 5.26735 25.9706 5.22047 26.7457 5.31111ZM17.0444 8.54593C17.9476 8.7022 18.729 9.06162 19.2291 9.55856C19.5854 9.91174 19.6823 10.1024 19.6823 10.4493C19.6823 10.7494 19.626 10.8806 19.4166 11.0931C18.7227 11.7901 16.8162 11.8089 15.4629 11.1307C15.0598 10.9306 14.8691 10.7962 14.5972 10.5243C14.2815 10.2149 14.1503 9.95237 14.1534 9.65233C14.1565 9.2554 14.3722 8.96786 14.8253 8.7522C15.2879 8.53655 15.7255 8.45841 16.3724 8.48342C16.5818 8.48967 16.885 8.5178 17.0444 8.54593ZM32.0277 9.18664C32.6184 9.27415 33.331 9.51793 33.8061 9.79922C34.1499 10.0024 34.5749 10.4243 34.6905 10.6712C34.8093 10.9306 34.8249 11.2369 34.7312 11.4619C34.428 12.1652 33.0716 12.4871 31.6839 12.1839C29.7774 11.7651 28.6897 10.4743 29.5555 9.65858C30.018 9.22102 30.9838 9.03662 32.0277 9.18664ZM21.9326 12.4808C22.8796 12.559 23.9766 13.0403 24.5079 13.606C24.7548 13.8717 24.8673 14.1061 24.8798 14.3905C24.8955 14.6874 24.8142 14.878 24.5829 15.0906C23.5828 16.0032 20.8699 15.6531 19.7448 14.4624C19.054 13.7279 19.2697 12.9622 20.2698 12.6215C20.7449 12.4621 21.2043 12.4215 21.9326 12.4808Z" />
<path d="M3.97699 6.28306C3.96136 6.32369 3.05186 10.8368 1.95797 16.3188C0.345245 24.3918 -0.0266801 26.2952 0.00144871 26.3545C0.0170758 26.3952 2.42365 28.4861 5.3428 31.0021C8.26195 33.518 11.703 36.4841 12.9876 37.5936C14.2753 38.7031 15.366 39.6282 15.4098 39.6532C15.4786 39.6907 15.4942 39.6876 15.5286 39.6439C15.5473 39.6126 15.5754 39.5376 15.5879 39.4751C15.5973 39.4126 16.5943 34.8432 17.7976 29.3268C19.004 23.8073 19.9948 19.2442 20.001 19.1848C20.0104 19.1067 19.9948 19.0442 19.9417 18.966C19.901 18.9067 19.4041 18.4847 18.8353 18.0284C15.5536 15.4031 4.09576 6.26118 4.05513 6.23931C4.02075 6.21743 3.99887 6.22993 3.97699 6.28306ZM5.49907 9.91793C5.8585 10.0273 6.31793 10.3867 6.63673 10.8056C6.93989 11.2119 7.23994 11.887 7.36808 12.4683C7.44934 12.8277 7.46497 13.6059 7.39933 13.9497C7.33057 14.3217 7.20556 14.6342 7.03053 14.8811C6.86801 15.1093 6.73987 15.2155 6.48358 15.3343C6.33356 15.4062 6.2648 15.4187 6.03977 15.4156C5.7241 15.4124 5.54908 15.3562 5.24279 15.1686C4.98963 15.0124 4.61145 14.6342 4.41455 14.3435C4.13326 13.9279 3.8926 13.3465 3.77384 12.809C3.74571 12.6746 3.71445 12.3589 3.70508 12.0745C3.68633 11.4588 3.74571 11.1025 3.94261 10.693C4.27391 10.0054 4.84273 9.72103 5.49907 9.91793ZM15.4504 18.0284C15.7442 18.119 15.9536 18.2534 16.2505 18.5379C17.3944 19.6349 17.7789 21.8164 17.0288 22.9447C16.7819 23.3135 16.4693 23.501 16.0568 23.5229C15.6161 23.5448 15.2035 23.351 14.7753 22.9228C14.0159 22.1602 13.5845 20.9319 13.6689 19.7693C13.7596 18.4879 14.5284 17.7377 15.4504 18.0284ZM9.30272 20.4287C10.5216 21.0319 11.3186 23.0822 10.9279 24.6074C10.7998 25.1075 10.4841 25.5388 10.1091 25.7232C9.92468 25.8138 9.87154 25.8264 9.63401 25.8264C9.46211 25.8264 9.30897 25.8076 9.20583 25.7701C8.49323 25.5326 7.80564 24.6949 7.48372 23.6854C7.3212 23.1697 7.27432 22.8791 7.27744 22.3415C7.28057 21.9258 7.29307 21.8133 7.36183 21.557C7.52747 20.9226 7.83689 20.5194 8.28695 20.3381C8.39947 20.2912 8.49323 20.2787 8.73076 20.2881C9.01518 20.2943 9.04956 20.3037 9.30272 20.4287ZM2.96123 22.6259C3.63319 22.8353 4.31141 23.6573 4.65208 24.6699C5.13027 26.0983 4.83023 27.5672 3.97074 27.9954C3.02686 28.4673 1.77357 27.4672 1.2985 25.8576C1.17973 25.4482 1.1266 25.0762 1.1266 24.6387C1.12973 23.8292 1.3235 23.2698 1.73606 22.8791C2.09548 22.5415 2.45178 22.4665 2.96123 22.6259ZM12.6688 30.8927C12.9438 30.9739 13.222 31.149 13.5033 31.4177C14.5566 32.4304 14.9785 34.3681 14.4034 35.5777C13.8596 36.7216 12.6282 36.6716 11.728 35.4652C11.1436 34.6807 10.8123 33.5086 10.9154 32.5679C11.0092 31.6834 11.3936 31.0864 12.0093 30.8645C12.1093 30.827 12.5063 30.8458 12.6688 30.8927Z" />
<path d="M38.3723 13.437C37.6847 13.6745 36.6783 14.0246 36.1376 14.2121C35.5969 14.3996 34.2967 14.8528 33.2466 15.2154C32.1996 15.581 31.1432 15.9467 30.9025 16.028C30.6619 16.1092 29.6086 16.4749 28.5585 16.8406C27.5114 17.2031 26.2925 17.6282 25.855 17.7782C22.8014 18.8346 21.6638 19.2315 21.5419 19.2941C21.3637 19.3847 21.3075 19.4503 21.2637 19.6066C21.1637 19.9879 16.8787 39.6656 16.8631 39.8187C16.8506 39.9531 16.8537 40 16.885 40C16.9069 40 17.757 39.6906 18.7727 39.3093C20.9168 38.506 23.514 37.5372 27.4489 36.0682C29.4461 35.3212 32.6996 34.1086 33.7467 33.7148C34.8249 33.3116 35.0375 33.2147 35.0968 33.0928C35.1156 33.0491 35.2406 32.5427 35.3719 31.9677C35.5031 31.3926 35.6875 30.5893 35.7813 30.1862C35.8782 29.783 36.022 29.1516 36.1095 28.7891C36.1939 28.4234 36.3345 27.8202 36.4189 27.4514C36.5064 27.0826 36.6471 26.4763 36.7314 26.1075C36.819 25.7387 36.9596 25.1323 37.044 24.7635C37.1315 24.3947 37.2721 23.7884 37.3565 23.4196C37.444 23.0508 37.5847 22.4445 37.6691 22.0757C37.7566 21.7069 37.8972 21.1005 37.9816 20.7317C38.0691 20.3629 38.2098 19.7566 38.2942 19.3878C38.3817 19.019 38.5223 18.4127 38.6067 18.0439C38.6942 17.6751 38.8349 17.0687 38.9192 16.6999C39.0068 16.3311 39.1443 15.7279 39.2287 15.3623C39.3162 14.9997 39.4631 14.3684 39.5568 13.9652C39.7944 12.9463 39.785 12.9963 39.6975 12.9994C39.6568 12.9994 39.0599 13.1963 38.3723 13.437ZM37.3034 16.3562C37.5316 16.4687 37.7347 16.6906 37.8316 16.9281C37.8941 17.0844 37.9035 17.1594 37.9004 17.5438C37.9004 17.9376 37.891 18.0064 37.8128 18.247C37.4909 19.219 36.7252 20.1442 35.8313 20.6442C35.5469 20.8036 35.0843 20.9568 34.8156 20.9818C34.1905 21.038 33.6873 20.7317 33.5216 20.1879C33.4435 19.941 33.4529 19.4347 33.5373 19.1159C33.8404 17.9907 34.8343 16.8531 35.897 16.4155C36.2282 16.2811 36.4095 16.2468 36.7783 16.2561C37.0877 16.2655 37.1409 16.2749 37.3034 16.3562ZM30.5462 24.5666C31.4495 24.9855 31.4057 26.3888 30.4493 27.6608C29.4336 29.0141 27.8459 29.6111 27.1051 28.9172C26.8145 28.6453 26.7113 28.3359 26.7395 27.814C26.8051 26.4857 28.099 24.9323 29.4711 24.5291C29.7899 24.4354 30.3056 24.4541 30.5462 24.5666ZM23.1483 32.9678C23.664 33.1272 23.9234 33.5366 23.9234 34.1867C23.9234 35.3462 22.9483 36.7464 21.7138 37.3684C21.3012 37.5747 21.0481 37.6403 20.6511 37.6403C20.3261 37.6403 20.2948 37.6341 20.0979 37.5372C19.7448 37.3653 19.5479 37.0746 19.4791 36.6308C19.3353 35.7182 20.0354 34.368 21.0481 33.5991C21.8263 33.0084 22.5608 32.7865 23.1483 32.9678Z" />
</svg>
