<svg viewBox="0 0 108 79" fill="none" xmlns="http://www.w3.org/2000/svg">
<path d="M92.5022 36.1597H92.4766C91.8521 38.0384 91.4905 39.9945 91.402 41.9723C91.2485 46.0358 91.6602 48.5083 91.1926 51.1414C90.7274 53.7744 89.3435 56.3655 85.8243 60.429C81.6375 65.2671 75.0038 69.0073 67.3373 70.2726C65.9115 71.1844 64.4066 72.0171 62.8226 72.7614C68.7887 75.006 75.027 75.1293 79.9721 73.5057C88.6852 70.6471 88.0107 68.5932 91.916 62.6108C93.0371 60.9103 94.4113 59.3909 95.9912 58.1054C100.055 59.8778 104.055 61.0129 106.551 60.7337C107.891 57.6239 106.516 54.0209 104.234 50.6157C106.107 44.8007 103.267 38.9788 96.9774 36.9203C95.3352 36.383 93.8605 36.1294 92.5022 36.1573V36.1597ZM97.2239 44.696C97.5692 44.6891 97.9107 44.7566 98.225 44.8939C98.5393 45.0312 98.8191 45.235 99.0452 45.4915C99.2515 45.7261 99.4087 45.9998 99.5078 46.2969C99.607 46.594 99.6461 46.9087 99.623 47.223C99.5999 47.5373 99.5149 47.8451 99.3731 48.1287C99.2312 48.4123 99.0352 48.6662 98.7963 48.8758C98.5578 49.0858 98.2811 49.2475 97.9818 49.3517C97.6826 49.456 97.3667 49.5007 97.0522 49.4835C96.7377 49.4662 96.4308 49.3872 96.149 49.251C95.8671 49.1148 95.6159 48.9241 95.4097 48.6898C95.2034 48.4552 95.0462 48.1815 94.947 47.8844C94.8479 47.5873 94.8087 47.2726 94.8318 46.9583C94.855 46.644 94.9399 46.3362 95.0817 46.0526C95.2236 45.769 95.4196 45.5151 95.6585 45.3055C96.093 44.9236 96.6499 44.7074 97.2239 44.696ZM58.2334 70.5703C58.3032 70.6122 58.3799 70.6494 58.452 70.6913L58.6777 70.6052L58.2334 70.5703Z" fill="#787878"/>
<path d="M61.206 0.000188538C57.8008 -0.0184194 54.3071 1.33996 51.3066 4.25674C47.3641 8.08299 46.1406 11.5278 46.8314 15.8285L47.0198 17.0078L45.8429 16.8147C37.1809 15.4122 26.4628 16.1216 14.2676 21.055C17.8543 22.5902 24.4322 25.1557 31.7358 28.661L34.0501 29.7752L31.5334 30.2869C21.8922 32.2407 10.4507 37.8859 0 50.2043C4.67523 49.8414 14.2304 48.7157 24.1949 48.7319C29.7331 48.7413 35.1922 49.125 39.6395 50.2787C44.0868 51.4301 48.1293 54.0701 48.6969 56.003C49.2644 57.9359 48.9434 58.9547 48.3829 60.4689C47.8223 61.9831 46.0964 64.2765 43.7076 65.7954C41.3188 67.3143 38.2951 68.6377 35.148 69.7635C28.8562 72.0174 22.1597 73.4572 19.2034 73.7317C18.5753 73.7898 18.3218 74.0154 18.0799 74.455C17.838 74.897 17.7054 75.5855 17.6845 76.3089C17.6612 77.2741 17.8101 77.7789 18.0799 78.1603C18.3497 78.5418 18.7777 78.6953 19.2196 78.7255C37.7973 79.9816 51.6904 75.3063 61.7782 71.3057C73.3849 65.9838 80.7187 55.4773 82.3097 46.0175C83.3099 40.0886 83.0936 37.1834 82.1329 34.7109C81.17 32.236 79.3255 30.038 76.9855 25.8442C75.4829 23.1461 74.6433 20.5014 74.1246 18.0382L74.0129 17.5195L74.4269 17.1869C78.7277 13.7421 82.2283 9.97635 83.4983 7.23866C80.8932 4.46376 76.3831 3.87761 71.3403 4.41724L70.9263 4.45911L70.6356 4.16371C67.9491 1.42602 64.6113 0.0234484 61.206 0.000188538ZM62.7179 6.40596C64.1949 6.3827 65.4998 7.40846 65.8533 8.8715C66.272 10.5927 65.237 12.3233 63.546 12.7326C62.7246 12.9228 61.8613 12.779 61.146 12.3327C60.4306 11.8865 59.9218 11.1745 59.7313 10.3532C59.3127 8.63193 60.3454 6.90139 62.0364 6.49202C62.2589 6.43829 62.489 6.40943 62.7179 6.40596Z" fill="#ECECEC"/>
<path d="M83.8727 13.9093C82.7256 13.8898 81.5805 14.0108 80.4628 14.2698L80.2349 14.3303C78.8655 15.6742 77.4326 16.9518 75.9411 18.1588C76.4412 20.3615 77.1809 22.655 78.4904 25.0042C80.7652 29.0793 82.64 31.2565 83.7402 34.0849C84.8403 36.9133 85.0311 40.2394 84.01 46.301C82.7446 53.8139 78.1717 61.7734 70.917 67.6465C76.5459 66.0044 81.3444 62.976 84.524 59.3055C87.9502 55.3444 89.0946 53.1045 89.497 50.8459C89.897 48.5897 89.5202 46.1149 89.6831 41.9141C89.7831 39.209 90.3599 36.8435 91.0926 34.7617L91.2694 34.2616L91.7951 34.1919C96.4866 33.5848 100.727 32.3869 102.92 30.9727C102.215 27.807 99.2243 25.3485 95.2631 23.483L94.8863 23.3039L94.7909 22.8969C93.5349 17.5006 89.3225 14.0232 83.8727 13.9093ZM86.5988 20.5732C86.8793 20.5728 87.1578 20.616 87.4245 20.7011C88.1191 20.9227 88.6956 21.4164 89.0271 22.0738C89.3586 22.7311 89.418 23.4982 89.1923 24.2064C89.0802 24.5573 88.9014 24.8832 88.6661 25.1653C88.4308 25.4474 88.1435 25.6802 87.8208 25.8504C87.498 26.0207 87.1461 26.125 86.7852 26.1574C86.4242 26.1898 86.0613 26.1496 85.7173 26.0393C85.0231 25.8173 84.4471 25.3233 84.1161 24.666C83.7851 24.0087 83.726 23.2419 83.9518 22.534C84.1334 21.9659 84.488 21.4695 84.964 21.1169C85.4401 20.7642 86.0128 20.5738 86.5988 20.5732Z" fill="#B2B2B2"/>
</svg>
