<svg viewBox="0 0 74 80" fill="none" xmlns="http://www.w3.org/2000/svg">
<path fill-rule="evenodd" clip-rule="evenodd" d="M73.8462 0H0L6.15385 70.7692L36.9231 80L67.6923 70.7692L73.8462 0Z" fill="#9BDC10"/>
<path fill-rule="evenodd" clip-rule="evenodd" d="M63.6788 46.1538L64.2141 40L65.0166 30.7692L65.8191 21.5384L66.6215 12.3077L67.1569 6.15381H36.9231V73.8461L55.6049 68.2412L61.9237 66.3458L62.7483 56.8677L63.5729 47.3895L63.6788 46.1538Z" fill="#C2F84F"/>
<path d="M19.3969 59.7169L15.2615 15.4092H37.3169V24.0738H24.7138L27.4708 53.2184L37.3169 55.7784V65.0338L19.3969 59.7169Z" fill="#ECEFF4"/>
<path d="M37.3169 65.0339L54.2523 60.3078L55.8277 46.917H47.7538L47.1631 52.8247L37.3169 55.7785V65.0339Z" fill="white"/>
<path d="M59.1754 15.4092H37.3169V24.0738H49.5262L48.7385 33.1323H57.4031L59.1754 15.4092Z" fill="white"/>
</svg>
