<svg viewBox="0 0 65 80" fill="none" xmlns="http://www.w3.org/2000/svg">
<path fill-rule="evenodd" clip-rule="evenodd" d="M2 15H62L57 72.5L32 80L7 72.5L2 15ZM14.4 27.52L17.76 63.52L32.32 67.84V60.32L24.32 58.24L22.08 34.56H32.32V27.52H14.4ZM32.32 67.8401L46.08 64.0001L47.36 53.1201H40.8L40.32 57.9201L32.32 60.3201V67.8401ZM32.32 27.52H50.08L48.64 41.92H41.6L42.24 34.56H32.32V27.52Z" />
<path d="M5.22721 11C7.73281 11 9.14401 9.71918 9.99361 8.15205L7.21441 6.50959C6.79681 7.29315 6.26401 7.83562 5.31361 7.83562C4.20481 7.83562 3.42721 6.87123 3.42721 5.5V5.46986C3.42721 4.20411 4.17601 3.16438 5.31361 3.16438C6.23521 3.16438 6.76801 3.69178 7.14241 4.44521L9.92161 2.74247C9.07201 1.13014 7.57441 0 5.35681 0C2.3472 0 0 2.35068 0 5.5V5.53014C0 8.8 2.4336 11 5.22721 11ZM9.73351 10.774H13.3335L13.8519 9.35753H17.3799L17.9127 10.774H21.5703L17.3223 0.150686H13.9815L9.73351 10.774ZM14.7015 6.85616L15.6231 4.29452L16.5447 6.85616H14.7015ZM21.9851 10.774H25.3259V5.90685L29.0699 10.774H32.0649V0.226028H28.7243V4.88219L25.1387 0.226028H21.9851V10.774ZM36.5763 10.8493H39.8019L43.8915 0.226028H40.1763L38.2179 6.14795L36.2595 0.226028H32.4867L36.5763 10.8493ZM42.1334 10.774H45.7334L46.2518 9.35753H49.7798L50.3126 10.774H53.9702L49.7222 0.150686H46.3814L42.1334 10.774ZM47.1014 6.85616L48.023 4.29452L48.9446 6.85616H47.1014ZM58.5789 10.9699C61.2861 10.9699 63.0285 9.6137 63.0285 7.39863V7.36849C63.0285 5.24384 61.3005 4.46027 58.7229 3.96301C57.6573 3.75205 57.3837 3.57123 57.3837 3.28493V3.25479C57.3837 2.99863 57.6141 2.81781 58.1181 2.81781C59.0541 2.81781 60.1917 3.13425 61.1421 3.85753L62.7837 1.47671C61.6173 0.512329 60.1773 0.0301367 58.2333 0.0301367C55.4541 0.0301367 53.9565 1.58219 53.9565 3.5863V3.61644C53.9565 5.84658 55.9437 6.52466 58.2045 7.00685C59.2845 7.23288 59.6013 7.39863 59.6013 7.7V7.73014C59.6013 8.01644 59.3421 8.18219 58.7373 8.18219C57.5565 8.18219 56.3037 7.82055 55.2093 6.94658L53.4093 9.19178C54.6909 10.3671 56.5341 10.9699 58.5789 10.9699Z" />
</svg>
