<svg viewBox="0 0 60 80" fill="none" xmlns="http://www.w3.org/2000/svg">
<path fill-rule="evenodd" clip-rule="evenodd" d="M22 0H13V11H22V8H16V3H22V0ZM35 0V3H30L35 8V11H25V8H30L25 3V0H35ZM48 0V3H43L48 8V11H38V8H43L38 3V0H48Z" />
<path fill-rule="evenodd" clip-rule="evenodd" d="M60 15H0L5 72.5L30 80L55 72.5L60 15ZM24.933 65.98L22.366 65.21L14.152 62.746L13.482 55.045L13.261 52.5H21.261L21.697 57.509L24.264 58.279L30 60L38.304 57.509L38.739 52.5L39.174 47.5H30V40H39.826L40.478 32.5H30H22.022H19.522H11.522L10.87 25H18.87H21.37H30H41.13H49.13L48.478 32.5L47.826 40L47.174 47.5L46.739 52.5L46.518 55.045L45.848 62.746L37.634 65.21L30 67.5L24.933 65.98Z" />
<path fill-rule="evenodd" clip-rule="evenodd" d="M30 47.5H23.326L22.674 40H30V47.5Z" />
</svg>
