<svg viewBox="0 0 60 80" fill="none" xmlns="http://www.w3.org/2000/svg">
<path fill-rule="evenodd" clip-rule="evenodd" d="M60 15H0L5 72.5L30 80L55 72.5L60 15Z" fill="#1572B6"/>
<path fill-rule="evenodd" clip-rule="evenodd" d="M51.739 52.5L52.174 47.5L52.826 40L53.478 32.5L54.13 25L54.565 20H30V75L45.179 70.446L50.313 68.906L50.983 61.205L51.653 53.504L51.739 52.5Z" fill="#33A9DC"/>
<path fill-rule="evenodd" clip-rule="evenodd" d="M22 0H13V11H22V8H16V3H22V0ZM35 0V3H30L35 8V11H25V8H30L25 3V0H35ZM48 0V3H43L48 8V11H38V8H43L38 3V0H48Z" fill="black"/>
<path fill-rule="evenodd" clip-rule="evenodd" d="M24.933 65.98L22.366 65.21L14.152 62.746L13.482 55.045L13.261 52.5H21.261L21.697 57.509L24.264 58.279L30 60V67.5L24.933 65.98ZM11.522 32.5H19.522H22.022H30V25H21.37H18.87H10.87L11.522 32.5Z" fill="#EBEBEB"/>
<path fill-rule="evenodd" clip-rule="evenodd" d="M30 60L38.304 57.509L38.739 52.5L39.174 47.5H30V40H39.826L40.478 32.5H30V25H41.13H49.13L48.478 32.5L47.826 40L47.174 47.5L46.739 52.5L46.518 55.045L45.848 62.746L37.634 65.21L30 67.5V60Z" fill="white"/>
<path fill-rule="evenodd" clip-rule="evenodd" d="M30 47.5H23.326L22.674 40H30V47.5Z" fill="#EBEBEB"/>
</svg>
