<svg viewBox="0 0 80 80" fill="none" xmlns="http://www.w3.org/2000/svg">
<path d="M67.9083 26.8124H63.6774L61.8862 26.9517L61.1702 28.3794L59.7599 31.9835L56.2813 40.7588L54.2753 46.0866H54.1186L52.2694 41.2289L48.6029 31.9835L46.597 26.8124H40.0156C40.1343 27.5252 40.5306 28.0485 40.7991 28.6928C41.3847 30.0983 41.937 31.5178 42.5228 32.9237C44.3168 37.2296 45.8998 41.6243 47.6939 45.9299L49.8877 51.2578C50.1359 51.8534 50.9401 52.9354 50.8279 53.6083C50.6131 54.8976 49.6086 56.3153 49.1042 57.5258C47.9963 60.1849 46.9217 62.858 45.8135 65.5176C44.9667 67.5498 44.1532 69.5963 43.3063 71.6289C43.0212 72.3129 42.8882 73.3289 42.2094 73.8227C41.2193 74.5427 38.1975 74.2691 37.0382 73.9794C35.8985 73.6945 34.7117 73.9462 33.5908 73.666C31.083 73.039 28.7348 72.2957 26.3826 71.3155C24.2969 70.4464 22.125 69.4152 20.2712 68.0248C15.1418 64.1778 10.6807 59.0165 8.36195 53.4516C7.40571 51.1567 6.93871 48.8555 6.32483 46.4C5.79044 44.2625 5.5 41.886 5.5 39.5C5.5 38.6953 5.50379 37.7749 5.69803 36.998C6 35 6.29655 32.8802 6.79494 30.8866C7.64103 27.5024 9.42095 24.5045 11.1826 21.4846C14.7905 15.2996 21.3464 10.5638 27.4795 8.00828C29.3983 7.20878 31.5589 6.79257 33.5908 6.28457C34.2148 6.12857 34.8424 6.28501 35.4712 6.12787C37.9415 5.51029 41.7762 5.51029 44.2465 6.12787C44.8753 6.28505 45.5029 6.12876 46.1269 6.28457C55.3104 8.58043 64.1306 13.6877 69.3186 22.5815C75.1224 32.5307 75.6914 46.4668 69.7887 56.5856C68.3766 59.0065 66.6422 61.239 64.7743 63.4804C63.8728 64.5621 62.7651 65.333 61.797 66.3011C61.5004 66.5977 60.8609 66.8552 60.7001 67.2413C60.4728 67.787 60.7001 67.8599 60.7001 67.8599L64 71.5C68.6227 68.9471 71.282 65.1192 73.9573 60.6598C84.259 43.4882 80.1738 20.2833 63.9908 8.14612C60.2143 5.31378 55.9751 3.14275 51.4547 1.78595C47.571 0.620258 43.2958 -0.132647 39.232 0.0194313C29.0766 0.3995 19.3409 4.20303 11.9661 11.3019C-2.32064 25.0539 -4.07598 48.6001 8.11311 64.2639C14.6123 72.616 23.9181 77.987 34.3743 79.5039C37.9614 80.0242 42.7589 80.6829 45.8135 78.2931C48.326 76.3273 49.191 72.5926 50.3586 69.7485C52.8895 63.5829 55.4981 57.4457 57.9738 51.2578C60.2602 45.5429 62.707 39.8924 64.9934 34.1773C65.9184 31.8652 67.5315 29.2707 67.9083 26.8124ZM40.7991 44.9897L35.1578 43.1093C33.2641 50.158 22.8899 49.147 20.6913 42.9526C18.642 37.1791 23.4482 30.4297 29.83 32.0547C32.5042 32.7355 33.9619 34.5757 35.3145 36.8413L40.7991 34.9609C38.8522 27.4488 29.0786 24.5236 22.465 27.1926C17.6828 29.1225 14.2002 33.8486 14.0061 39.0351C13.8026 44.4723 16.2791 49.5472 21.2114 52.1522C27.9303 55.701 38.6593 52.9545 40.7991 44.9897Z" />
</svg>
