<svg viewBox="0 0 81 80" fill="none" xmlns="http://www.w3.org/2000/svg">
<path d="M28.1624 31.7472C31.4012 31.7472 34.0327 33.4763 35.3822 36.4789L35.4834 36.7151L40.9151 34.8679L40.8055 34.5896C38.7053 29.4615 33.8556 26.2817 28.1624 26.2817C24.156 26.2817 20.9004 27.5638 18.2098 30.2037C15.5361 32.8268 14.1866 36.1246 14.1866 40.0045C14.1866 43.859 15.5445 47.1399 18.2098 49.7546C20.9004 52.3945 24.156 53.6766 28.1624 53.6766C33.8556 53.6766 38.6969 50.4884 40.8055 45.3687L40.9151 45.0904L35.475 43.2433L35.3822 43.4879C34.1676 46.4483 31.4686 48.2111 28.1624 48.2111C25.9104 48.2111 24.0042 47.4267 22.5029 45.8748C20.9763 44.306 20.2088 42.3239 20.2088 40.0045C20.2088 37.6681 20.9594 35.7282 22.5029 34.0835C24.0127 32.5316 25.9104 31.7472 28.1624 31.7472Z" fill="white"/>
<path d="M51.7449 78.271L50.1255 72.932C64.7338 68.4956 74.5514 55.262 74.5514 40.0043C74.5514 35.7955 73.8007 31.6795 72.3163 27.7829L77.5287 25.8008C79.2578 30.3385 80.1349 35.1123 80.1349 40.0127C80.1265 57.7333 68.7232 73.1092 51.7449 78.271Z" fill="url(#paint0_linear_59_24)"/>
<path d="M73.0416 29.9167C68.5798 15.359 55.3295 5.58355 40.0632 5.58355C37.9884 5.58355 35.9135 5.76911 33.8893 6.13179L32.9025 0.641012C35.2472 0.219294 37.6595 0 40.0632 0C57.7923 0 73.185 11.3611 78.3722 28.272L73.0416 29.9167Z" fill="#69D3A7"/>
<path d="M62.1782 26.7876L54.4439 46.3891L46.6505 26.7876H40.2741L51.2051 53.5414L43.243 72.8561L48.8181 73.9695L68.2003 26.7876H62.1782Z" fill="white"/>
<path d="M44.2467 70.4268L43.0743 73.2692C42.8044 73.9187 42.1887 74.3657 41.4971 74.391C41.0163 74.4079 40.544 74.4247 40.0548 74.4247C25.6489 74.4247 12.7275 65.3493 7.74275 52.0484C7.66684 51.8459 7.59093 51.6435 7.52346 51.4411C7.50659 51.3905 7.48972 51.3314 7.46442 51.2808C7.40538 51.0953 7.3379 50.9181 7.27886 50.7326C7.25356 50.6651 7.23669 50.5976 7.21139 50.5217C7.16078 50.353 7.10174 50.1928 7.05113 50.0241C7.02583 49.9398 7.00053 49.8554 6.97522 49.7711C6.03901 46.6166 5.56668 43.3356 5.56668 39.9956C5.56668 22.216 18.9183 7.48958 36.6136 5.74366L36.0654 0.193848C15.5108 2.22653 0 19.3399 0 40.0041C0 43.7658 0.522931 47.4685 1.54349 51.0447V51.0531C1.61096 51.2977 1.68687 51.5339 1.76278 51.7785C1.77122 51.8122 1.77965 51.8459 1.79652 51.8797C1.864 52.1074 1.93991 52.3351 2.01581 52.5628C2.03268 52.605 2.04112 52.6388 2.05799 52.6809C2.1339 52.9087 2.20981 53.1364 2.29415 53.3641C2.30258 53.3978 2.31945 53.4232 2.32789 53.4569C2.4038 53.6762 2.48814 53.8955 2.56405 54.1063C8.38376 69.4991 23.3548 79.9914 40.0464 79.9999H40.0548C40.6115 79.9999 41.1682 79.9914 41.7248 79.9661C44.5841 79.848 47.1397 78.0515 48.2362 75.3947L49.8218 71.5402L44.2467 70.4268Z" fill="url(#paint1_linear_59_24)"/>
<defs>
<linearGradient id="paint0_linear_59_24" x1="83.2043" y1="40.2574" x2="47.4324" y2="63.4184" gradientUnits="userSpaceOnUse">
<stop offset="0.0814251" stop-color="#69D3A7"/>
<stop offset="1" stop-color="#69D3A7" stop-opacity="0"/>
</linearGradient>
<linearGradient id="paint1_linear_59_24" x1="44.4272" y1="75.6449" x2="6.78203" y2="3.39235" gradientUnits="userSpaceOnUse">
<stop offset="0.0613291" stop-color="white"/>
<stop offset="0.138" stop-color="#DEF5EC"/>
<stop offset="0.2374" stop-color="#BAEBD7"/>
<stop offset="0.3427" stop-color="#9DE2C5"/>
<stop offset="0.4536" stop-color="#86DBB8"/>
<stop offset="0.573" stop-color="#76D7AE"/>
<stop offset="0.7067" stop-color="#6CD4A9"/>
<stop offset="0.8842" stop-color="#69D3A7"/>
</linearGradient>
</defs>
</svg>
