<svg viewBox="0 0 114 80" fill="none" xmlns="http://www.w3.org/2000/svg">
<path d="M98.3777 28.9472C97.7817 24.6194 95.3975 20.8617 91.0956 17.4668L88.6077 15.7823L86.9492 18.2961C84.8241 21.5355 83.7616 26.0447 84.0985 30.3725C84.254 31.8756 84.7464 34.6226 86.2754 36.9809C84.7464 37.8361 81.7143 38.9764 77.6715 38.8986H0.444463L0.288973 39.8056C-0.436651 44.1335 -0.436651 57.6871 8.24492 68.079C14.8533 75.9832 24.7269 80 37.6327 80C65.621 80 86.3013 66.9647 96.0195 43.2264C99.829 43.3042 108.044 43.2523 112.268 35.0891C112.372 34.9077 112.631 34.4153 113.357 32.8604L113.771 32.0052L111.413 30.3984C108.822 28.714 102.939 28.0661 98.3777 28.9472ZM62.2002 0H50.4607V10.8066H62.2002V0ZM62.2002 12.9835H50.4607V23.7901H62.2002V12.9835ZM48.3097 12.9835H36.5702V23.7901H48.3097V12.9835ZM34.4451 12.9835H22.7056V23.7901H34.4451V12.9835ZM20.5546 25.967H8.81505V36.7736H20.5546V25.967ZM34.4451 25.967H22.7056V36.7736H34.4451V25.967ZM48.3097 25.967H36.5702V36.7736H48.3097V25.967ZM62.2002 25.967H50.4607V36.7736H62.2002V25.967ZM76.0907 25.967H64.3512V36.7736H76.0907V25.967Z" fill="#1D63ED"/>
</svg>
