<svg viewBox="0 0 60 80" fill="none" xmlns="http://www.w3.org/2000/svg">
<path fill-rule="evenodd" clip-rule="evenodd" d="M60 15H0L5 72.5L30 80L55 72.5L60 15Z" fill="#E44D26"/>
<path fill-rule="evenodd" clip-rule="evenodd" d="M7 0V11H10V7H14V11H17V0H14V4H10V0H7ZM31 0V11H34V5L36.5 9L39 5V11H42V0H39L36.5 3.5L34 0H31ZM44 0V11H53V8H47V0H44Z" fill="black"/>
<path fill-rule="evenodd" clip-rule="evenodd" d="M22.366 65.21L14.152 62.746L13.482 55.045L13.261 52.5H21.261L21.697 57.509L30 60V67.5L22.366 65.21ZM30 32.5H19.522L20.174 40H30V47.5H20.826H12.826L12.174 40L11.522 32.5L10.87 25H18.87H30V32.5Z" fill="#EBEBEB"/>
<path fill-rule="evenodd" clip-rule="evenodd" d="M51.739 52.5L52.174 47.5L52.826 40L53.478 32.5L54.13 25L54.565 20H30V75L45.179 70.446L50.313 68.906L50.983 61.205L51.653 53.504L51.739 52.5Z" fill="#F16529"/>
<path fill-rule="evenodd" clip-rule="evenodd" d="M19 0V3H22.5V11H25.5V3H29V0H19Z" fill="black"/>
<path fill-rule="evenodd" clip-rule="evenodd" d="M30 32.5H40.478H48.478L49.13 25H41.13H30V32.5ZM39.174 47.5H30V40H39.826H47.826L47.174 47.5L46.739 52.5L46.518 55.045L45.848 62.746L37.634 65.21L30 67.5V60L38.304 57.509L38.739 52.5L39.174 47.5Z" fill="white"/>
</svg>
