<svg viewBox="0 0 74 80" fill="none" xmlns="http://www.w3.org/2000/svg">
<path fill-rule="evenodd" clip-rule="evenodd" d="M73.8462 0H0L6.15385 70.7692L36.9231 80L67.6923 70.7692L73.8462 0ZM27.5274 61.7969L17.4178 58.7643L16.5932 49.2862L16.3212 46.1538H26.1674L26.704 52.3188L36.9231 55.3846L47.1434 52.3188L47.6788 46.1538L48.2142 40H36.9231H25.632H15.7858L14.9834 30.7692L14.1809 21.5385L13.3785 12.3077H23.2246H36.9231H50.6215H60.4677L59.6652 21.5385H49.8191H36.9231H24.0271L24.8295 30.7692H36.9231H49.0166H58.8628L58.0603 40L57.5249 46.1538L57.2529 49.2862L56.4283 58.7643L46.3188 61.7969L36.9231 64.6154L27.5274 61.7969Z" />
</svg>
