<svg viewBox="0 0 74 80" fill="none" xmlns="http://www.w3.org/2000/svg">
<path fill-rule="evenodd" clip-rule="evenodd" d="M73.8462 0H0L6.15385 70.7692L36.9231 80L67.6923 70.7692L73.8462 0Z" fill="#E44D26"/>
<path fill-rule="evenodd" clip-rule="evenodd" d="M27.5274 61.7968L17.4178 58.7642L16.5932 49.2861L16.3212 46.1538H26.1674L26.704 52.3187L36.9231 55.3845V64.6153L27.5274 61.7968ZM36.9231 21.5384H24.0271L24.8295 30.7692H36.9231V39.9999H25.632H15.7858L14.9834 30.7692L14.1809 21.5384L13.3784 12.3076H23.2246H36.9231V21.5384Z" fill="#EBEBEB"/>
<path fill-rule="evenodd" clip-rule="evenodd" d="M63.6788 46.1538L64.2141 40L65.0166 30.7692L65.8191 21.5384L66.6215 12.3077L67.1569 6.15381H36.9231V73.8461L55.6049 68.2412L61.9237 66.3458L62.7483 56.8677L63.5729 47.3895L63.6788 46.1538Z" fill="#F16529"/>
<path fill-rule="evenodd" clip-rule="evenodd" d="M36.9231 21.5384H49.8191H59.6652L60.4677 12.3076H50.6215H36.9231V21.5384ZM48.2141 39.9999H36.9231V30.7692H49.0166H58.8628L58.0603 39.9999L57.5249 46.1538L57.2529 49.2861L56.4283 58.7642L46.3188 61.7968L36.9231 64.6153V55.3845L47.1434 52.3187L47.6788 46.1538L48.2141 39.9999Z" fill="white"/>
</svg>
