<svg  viewBox="0 0 60 80" fill="none" xmlns="http://www.w3.org/2000/svg">
<path fill-rule="evenodd" clip-rule="evenodd" d="M7 0V11H10V7H14V11H17V0H14V4H10V0H7ZM31 0V11H34V5L36.5 9L39 5V11H42V0H39L36.5 3.5L34 0H31ZM44 0V11H53V8H47V0H44Z" />
<path fill-rule="evenodd" clip-rule="evenodd" d="M19 0V3H22.5V11H25.5V3H29V0H19Z" />
<path fill-rule="evenodd" clip-rule="evenodd" d="M60 15H0L5 72.5L30 80L55 72.5L60 15ZM22.366 65.21L14.152 62.746L13.482 55.045L13.261 52.5H21.261L21.697 57.509L30 60L38.304 57.509L38.739 52.5L39.174 47.5H30H20.826H12.826L12.174 40L11.522 32.5L10.87 25H18.87H30H41.13H49.13L48.478 32.5H40.478H30H19.522L20.174 40H30H39.826H47.826L47.174 47.5L46.739 52.5L46.518 55.045L45.848 62.746L37.634 65.21L30 67.5L22.366 65.21Z" />
</svg>
