<svg viewBox="0 0 75 80" fill="none" xmlns="http://www.w3.org/2000/svg">
<path fill-rule="evenodd" clip-rule="evenodd" d="M72.7289 39.398C72.7289 34.58 69.3139 30.527 64.7289 29.369L74.9979 0H24.1079L34.4009 29.462C29.9589 30.713 26.6869 34.696 26.6869 39.421C26.6869 42.895 28.4779 45.976 31.2009 47.875C30.1259 49.357 28.8849 50.724 27.4759 52.021C24.8249 54.43 21.8879 56.283 18.7119 57.51C15.8459 55.634 14.6049 52.322 15.7269 49.357C20.0969 48.06 23.2729 44.099 23.2729 39.444C23.2729 33.723 18.4729 29.091 12.5989 29.091C6.69988 29.091 1.90088 33.747 1.90088 39.467C1.90088 42.293 3.09488 44.887 5.00488 46.74L4.50388 47.736C2.90388 50.932 1.08888 54.546 0.396878 58.599C-0.988122 66.706 1.28088 73.214 6.74888 76.897C9.82788 78.958 13.2189 80 16.8729 80C23.1539 80 29.5299 76.943 35.6909 73.978C40.0849 71.87 44.6219 69.67 49.0879 68.605C50.7359 68.211 52.4549 67.98 54.2699 67.725C57.9469 67.215 61.7439 66.683 65.1589 64.76C69.1469 62.513 71.8689 58.761 72.6579 54.453C73.2549 51.141 72.6579 47.806 71.1299 44.887C72.1813 43.2499 72.7359 41.3437 72.7289 39.398ZM68.0719 39.398C68.0719 42.617 65.3729 45.235 62.0539 45.235C58.7349 45.235 56.0359 42.618 56.0359 39.398C56.0359 38.356 56.3229 37.36 56.8239 36.503C57.0149 36.179 57.2539 35.855 57.4929 35.577C57.7319 35.299 58.0179 35.044 58.3289 34.813L58.3529 34.79C58.5561 34.6455 58.7632 34.5064 58.9739 34.373C58.9739 34.373 58.9979 34.373 58.9979 34.35C59.0939 34.304 59.1889 34.234 59.2849 34.188C59.3089 34.188 59.3329 34.165 59.3569 34.165C59.4529 34.119 59.5719 34.072 59.6909 34.026C59.8099 33.98 59.9299 33.933 60.0249 33.887C60.0489 33.887 60.0729 33.864 60.0969 33.864C60.1929 33.841 60.2879 33.795 60.3829 33.771C60.4069 33.771 60.4549 33.748 60.4789 33.748L60.8129 33.679H60.8369L61.1949 33.609C61.2189 33.609 61.2669 33.609 61.2909 33.586C61.3859 33.586 61.4819 33.563 61.5769 33.563H61.6959C61.8149 33.563 61.9349 33.54 62.0779 33.54H62.3879C62.4839 33.54 62.5549 33.54 62.6509 33.563H62.6989C62.8899 33.586 63.0809 33.609 63.2719 33.656C65.9939 34.212 68.0719 36.574 68.0719 39.4V39.398ZM30.7709 4.632H68.3349L59.7139 29.299C59.3559 29.369 58.9969 29.484 58.6389 29.6L49.5639 11.65L40.4649 29.484C40.1069 29.368 39.7249 29.299 39.3429 29.229L30.7709 4.632ZM47.8459 37.383C47.3919 35.206 46.2459 33.26 44.6219 31.824L49.5649 22.142L54.5559 32.032C53.0749 33.468 52.0009 35.298 51.5709 37.382L47.8459 37.383ZM35.8819 33.723L36.2159 33.654H36.2879C36.3839 33.631 36.4789 33.631 36.5749 33.608H36.6709C36.7669 33.608 36.8379 33.585 36.9339 33.585H37.0299H37.3879H37.7459H37.8649C37.9599 33.585 38.0319 33.608 38.1039 33.608C38.1449 33.6044 38.1861 33.6123 38.2229 33.631C38.3189 33.654 38.3899 33.654 38.4859 33.677C38.5099 33.677 38.5339 33.677 38.5809 33.7L38.9149 33.77H38.9389C39.0377 33.7903 39.1339 33.8215 39.2259 33.863C39.2499 33.863 39.2739 33.886 39.3219 33.886C39.3939 33.909 39.4889 33.932 39.5609 33.979C39.5849 33.979 39.6089 34.002 39.6329 34.002C39.7279 34.048 39.8239 34.072 39.9189 34.118H39.9429C40.0534 34.1577 40.158 34.2122 40.2539 34.28H40.2779C40.3739 34.326 40.4689 34.396 40.5649 34.442C40.5889 34.442 40.5889 34.465 40.6129 34.465C40.7079 34.511 40.7799 34.581 40.8759 34.627L40.8999 34.65C41.181 34.8611 41.4519 35.0854 41.7119 35.322L41.7359 35.345C41.9749 35.6 42.2139 35.878 42.4049 36.179C43.0259 37.105 43.3839 38.194 43.3839 39.375C43.3839 42.594 40.6849 45.212 37.3659 45.212C34.0469 45.212 31.3479 42.595 31.3479 39.375C31.3239 36.665 33.2589 34.372 35.8849 33.724L35.8819 33.723ZM12.3839 33.561C15.7029 33.561 18.4019 36.178 18.4019 39.398C18.4019 42.618 15.7039 45.235 12.3839 45.235C9.06388 45.235 6.36588 42.618 6.36588 39.398C6.36588 36.178 9.06488 33.561 12.3839 33.561ZM67.9299 53.642C67.4049 56.607 65.5179 59.201 62.7479 60.753C60.1449 62.212 56.9449 62.675 53.5779 63.139C51.7389 63.394 49.8049 63.672 47.9419 64.112C42.9749 65.293 38.1989 67.609 33.5659 69.833C27.6439 72.682 22.0549 75.369 16.8729 75.369C14.1739 75.369 11.7629 74.628 9.46988 73.076C4.21588 69.555 4.47888 62.954 5.09988 59.341C5.67288 55.959 7.27288 52.786 8.80088 49.752C8.89688 49.567 8.96788 49.405 9.06388 49.219C9.58888 49.404 10.1389 49.543 10.7119 49.636C9.80488 54.546 12.3839 59.619 17.3979 62.12L18.3059 62.583L19.2849 62.236C23.4639 60.8 27.3329 58.461 30.7479 55.334C32.6819 53.574 34.3299 51.674 35.7149 49.613C36.2639 49.706 36.8139 49.729 37.3629 49.729C42.3299 49.729 46.5089 46.417 47.7029 41.97H51.7149C52.9089 46.44 57.0879 49.729 62.0549 49.729C64.0369 49.729 65.8759 49.196 67.4519 48.293C68.0729 50.03 68.2639 51.837 67.9299 53.643V53.642Z" fill="#99424F"/>
</svg>
