<svg viewBox="0 0 83 80" fill="none" xmlns="http://www.w3.org/2000/svg">
<g clip-path="url(#clip0_145_3)">
<path d="M75.5211 17.7942C75.0497 16.2788 73.9114 15.0463 72.4903 14.292L43.6302 0.47146C42.8692 0.094292 42.0205 0 41.2595 0C40.4984 0 39.6498 0 38.8954 0.188584L10.0286 14.1034C8.60751 14.7634 7.5703 15.996 7.1864 17.6057L0.094292 48.7422C-0.188584 50.3519 0.188584 51.9616 1.13824 53.2884L21.1079 77.9862C22.2462 79.1244 23.8559 79.8788 25.4588 79.9731H57.2554C58.9594 80.1617 60.5691 79.4073 61.6063 77.9862L81.576 53.2884C82.5257 51.9616 82.9028 50.3519 82.7143 48.7422L75.5211 17.7942Z" fill="#326DE6"/>
<path d="M71.1163 46.7755C71.0221 46.7755 70.9278 46.7755 70.9278 46.6812C70.9278 46.587 70.7392 46.587 70.5506 46.587C70.1734 46.4927 69.7963 46.4927 69.4124 46.4927C69.2238 46.4927 69.0352 46.4927 68.8466 46.3984H68.7523C67.7084 46.3041 66.5769 46.1155 65.5329 45.8326C65.25 45.7383 64.9672 45.4555 64.8729 45.1726L64.1185 44.984C64.4957 42.2361 64.3071 39.4006 63.7414 36.6526C63.0813 33.9047 61.9431 31.2578 60.4277 28.8937L60.9934 28.328V28.2337C60.9934 27.9508 61.0877 27.5737 61.2763 27.3851C62.1249 26.6307 62.9803 26.0582 63.9232 25.4925C64.1118 25.3982 64.3004 25.3039 64.489 25.2096C64.8661 25.021 65.149 24.8325 65.5329 24.6439C65.6272 24.5496 65.7215 24.5496 65.8158 24.4553C65.9101 24.361 65.8158 24.361 65.8158 24.2667C66.6644 23.6067 66.8597 22.4684 66.193 21.6198C65.9101 21.2426 65.3443 20.9597 64.8661 20.9597C64.3947 20.9597 63.9165 21.1483 63.5393 21.4312L63.445 21.5255C63.3507 21.6198 63.2564 21.7141 63.1621 21.7141C62.8793 21.997 62.5964 22.2798 62.4078 22.5627C62.3135 22.7513 62.1249 22.8456 62.0306 22.9399C61.3706 23.6942 60.5152 24.4553 59.6666 25.021C59.478 25.1153 59.2894 25.2096 59.1009 25.2096C59.0066 25.2096 58.818 25.2096 58.7237 25.1153H58.6294L57.8751 25.5868C57.1207 24.8325 56.2654 24.0714 55.511 23.317C52.0088 20.5691 47.6579 18.8719 43.2059 18.3937L43.1116 17.6393V17.7336C42.8288 17.545 42.7345 17.2622 42.6402 16.9793C42.6402 15.9353 42.6402 14.8981 42.8288 13.7599V13.6656C42.8288 13.477 42.9231 13.2884 42.9231 13.0998C43.0173 12.7227 43.0173 12.3455 43.1116 11.9616V11.3824C43.2059 10.4327 42.4516 9.4898 41.5019 9.39551C40.9362 9.30122 40.3637 9.58409 39.8922 10.0556C39.5151 10.4327 39.3265 10.9042 39.3265 11.3824V11.8538C39.3265 12.231 39.4208 12.6082 39.5151 12.9921C39.6094 13.1807 39.6094 13.3692 39.6094 13.5578V13.6521C39.7979 14.6961 39.7979 15.7333 39.7979 16.8715C39.7037 17.1544 39.6094 17.4373 39.3265 17.6258V17.8144L39.2322 18.5688C38.1882 18.6631 37.151 18.8516 36.0128 19.0402C31.5676 19.9899 27.4928 22.3539 24.3745 25.6676L23.8087 25.2904H23.7144C23.6201 25.2904 23.5258 25.3847 23.3373 25.3847C23.1487 25.3847 22.9601 25.2904 22.7715 25.1961C21.9229 24.5361 21.0675 23.775 20.4075 23.0207C20.3132 22.8321 20.1246 22.7378 20.0303 22.6435C19.7474 22.3607 19.5588 22.0778 19.276 21.7949C19.1817 21.7006 19.0874 21.7006 18.9931 21.6063C18.8988 21.512 18.8988 21.512 18.8988 21.512C18.5216 21.2292 18.0502 21.0406 17.572 21.0406C17.0062 21.0406 16.528 21.2292 16.2452 21.7006C15.6794 22.5492 15.868 23.6875 16.6223 24.3475C16.7166 24.3475 16.7166 24.4418 16.7166 24.4418C16.7166 24.4418 16.9052 24.6304 16.9995 24.6304C17.2824 24.819 17.6595 25.0076 18.0434 25.1961C18.232 25.2904 18.4206 25.3847 18.6092 25.479C19.5588 26.0448 20.5018 26.6173 21.2561 27.3716C21.4447 27.5602 21.6333 27.9374 21.539 28.2202V28.1259L22.1047 28.6917C22.0104 28.8803 21.9161 28.9746 21.8219 29.1631C18.8853 33.8037 17.6595 39.2928 18.5082 44.6876L17.7538 44.8762C17.7538 44.9705 17.6595 44.9705 17.6595 44.9705C17.5652 45.2534 17.2824 45.442 16.9995 45.6306C15.9555 45.9134 14.9183 46.102 13.7801 46.1963C13.5915 46.1963 13.4029 46.1963 13.2143 46.2906C12.8372 46.2906 12.46 46.3849 12.0761 46.3849C11.9818 46.3849 11.8875 46.4792 11.6989 46.4792C11.6046 46.4792 11.6046 46.4792 11.5104 46.5735C10.4664 46.7621 9.80636 47.7117 9.99495 48.7489C10.1835 49.5976 11.0389 50.17 11.8875 50.0758C12.0761 50.0758 12.1704 50.0758 12.359 49.9815C12.4533 49.9815 12.4533 49.9815 12.4533 49.8872C12.4533 49.7929 12.7361 49.8872 12.8304 49.8872C13.2076 49.7929 13.5848 49.6043 13.8744 49.51C14.063 49.4157 14.2516 49.3214 14.4401 49.3214H14.5344C15.5784 48.9443 16.5213 48.6614 17.6595 48.4728H17.7538C18.0367 48.4728 18.3196 48.5671 18.5082 48.7557C18.6025 48.7557 18.6025 48.85 18.6025 48.85L19.4511 48.7557C20.8722 53.1066 23.5191 56.9928 27.21 59.8282C28.0586 60.4883 28.8197 61.0608 29.7626 61.5322L29.2911 62.1923C29.2911 62.2866 29.3854 62.2866 29.3854 62.2866C29.574 62.5694 29.574 62.9466 29.4797 63.2362C29.1025 64.1859 28.5301 65.1288 27.9643 65.9842V66.0785C27.87 66.267 27.7757 66.3613 27.5871 66.5499C27.3986 66.7385 27.21 67.1157 26.9271 67.4996C26.8328 67.5939 26.8328 67.6882 26.7385 67.7824C26.7385 67.7824 26.7385 67.8767 26.6442 67.8767C26.1728 68.8264 26.5499 69.9579 27.3986 70.4294C27.5871 70.5236 27.87 70.6179 28.0586 70.6179C28.8129 70.6179 29.4797 70.1465 29.8569 69.4797C29.8569 69.4797 29.8569 69.3854 29.9512 69.3854C29.9512 69.2911 30.0455 69.1968 30.1398 69.1025C30.234 68.7254 30.4226 68.4425 30.5169 68.0586L30.7055 67.4928C30.9884 66.4489 31.4598 65.506 31.938 64.5563C32.1266 64.2734 32.4095 64.0849 32.6924 63.9906C32.7867 63.9906 32.7867 63.9906 32.7867 63.8963L33.1638 63.1419C35.8107 64.1859 38.5587 64.6573 41.3942 64.6573C43.0982 64.6573 44.8022 64.4688 46.5061 63.9973C47.5501 63.8087 48.5873 63.4315 49.537 63.1487L49.9141 63.8087C50.0084 63.8087 50.0084 63.8087 50.0084 63.903C50.2913 63.9973 50.5742 64.1859 50.7628 64.4688C51.2342 65.4184 51.7124 66.3613 51.9953 67.4053V67.4996L52.1839 68.0653C52.2782 68.4425 52.3725 68.8197 52.561 69.1093C52.6553 69.2036 52.6553 69.2979 52.7496 69.3921C52.7496 69.3921 52.7496 69.4864 52.8439 69.4864C53.2211 70.1465 53.8879 70.6247 54.6422 70.6247C54.9251 70.6247 55.1137 70.5304 55.3965 70.4361C55.7737 70.2475 56.1509 69.8703 56.2452 69.3921C56.3395 68.9207 56.3395 68.4425 56.1509 67.971C56.1509 67.8767 56.0566 67.8767 56.0566 67.8767C56.0566 67.7824 55.9623 67.6882 55.868 67.5939C55.6794 67.2167 55.4908 66.9338 55.2079 66.6442C55.1137 66.4556 55.0194 66.3613 54.8308 66.1727V65.9842C54.1707 65.1355 53.6925 64.1859 53.3154 63.2362C53.2211 62.9533 53.2211 62.5762 53.4097 62.2866C53.4097 62.1923 53.504 62.1923 53.504 62.1923L53.2211 61.4379C58.0502 58.5014 61.741 53.9619 63.445 48.5671L64.1994 48.6614C64.2937 48.6614 64.2936 48.5671 64.2936 48.5671C64.4822 48.3785 64.7651 48.2842 65.048 48.2842H65.1423C66.1862 48.4728 67.2234 48.7557 68.1731 49.1328H68.2674C68.456 49.2271 68.6445 49.3214 68.8331 49.3214C69.2103 49.51 69.4932 49.6986 69.8771 49.7929C69.9714 49.7929 70.0657 49.8872 70.2542 49.8872C70.3485 49.8872 70.3485 49.8872 70.4428 49.9815C70.6314 50.0758 70.7257 50.0758 70.9143 50.0758C71.7629 50.0758 72.524 49.51 72.8069 48.7489C72.726 47.7252 71.965 46.9641 71.1163 46.7755ZM43.7649 43.839L41.2123 45.0715L38.6597 43.839L37.9997 41.0911L39.7979 38.8213H42.6402L44.4385 41.0911L43.7649 43.839ZM59.1884 37.6898C59.6599 39.6767 59.7542 41.6636 59.5656 43.6504L50.5742 41.0978C49.7255 40.9092 49.2473 40.0539 49.4359 39.2052C49.5302 38.9224 49.6245 38.7338 49.8131 38.5452L56.9119 32.1064C57.9559 33.8104 58.717 35.703 59.1884 37.6898ZM54.0764 28.6041L46.3176 34.0933C45.6575 34.4704 44.7079 34.3761 44.2364 33.7161C44.0478 33.5275 43.9535 33.3389 43.9535 33.0561L43.3878 23.4989C47.5501 23.9704 51.2409 25.7686 54.0764 28.6041ZM36.949 23.775L38.8416 23.3979L38.3701 32.8607C38.3701 33.7094 37.6158 34.3761 36.7604 34.3761C36.4775 34.3761 36.2889 34.2819 36.0061 34.1876L28.1529 28.6041C30.6045 26.2401 33.6353 24.5361 36.949 23.775ZM25.405 32.1064L32.4095 38.3499C33.0695 38.9156 33.1638 39.8653 32.5981 40.5253C32.4095 40.8082 32.2209 40.9025 31.8437 40.9968L22.6637 43.6437C22.3741 39.6767 23.3171 35.6087 25.405 32.1064ZM23.7953 48.1024L33.1638 46.4927C33.9182 46.4927 34.6792 46.9641 34.7735 47.7252C34.8678 48.0081 34.8678 48.3852 34.6792 48.6748L31.0827 57.3834C27.769 55.2012 25.1153 51.8875 23.7953 48.1024ZM45.2804 59.835C43.9535 60.1179 42.6334 60.3064 41.2123 60.3064C39.2255 60.3064 37.1443 59.9293 35.2517 59.3568L39.8922 50.9311C40.3637 50.3654 41.1248 50.1768 41.7848 50.554C42.0677 50.7425 42.2563 50.9311 42.5391 51.214L47.0854 59.4511C46.5061 59.5521 45.9404 59.6464 45.2804 59.835ZM56.8244 51.6046C55.4033 53.8744 53.4164 55.8612 51.1467 57.2824L47.4558 48.3852C47.2672 47.6309 47.6444 46.8698 48.3044 46.587C48.5873 46.4927 48.8702 46.3984 49.1531 46.3984L58.6159 48.0081C58.1512 49.3282 57.5787 50.5607 56.8244 51.6046Z" fill="white"/>
</g>
<defs>
<clipPath id="clip0_145_3">
<rect width="82.7614" height="80" fill="white"/>
</clipPath>
</defs>
</svg>
