<svg viewBox="0 0 83 81" fill="none" xmlns="http://www.w3.org/2000/svg">
<path fill-rule="evenodd" clip-rule="evenodd" d="M72.4878 14.292C73.9089 15.0463 75.0472 16.2788 75.5186 17.7942L82.7118 48.7422C82.9004 50.3519 82.5232 51.9616 81.5735 53.2884L61.6038 77.9862C60.5666 79.4073 58.9569 80.1617 57.2529 79.9731H25.4563C23.8534 79.8788 22.2437 79.1244 21.1054 77.9862L1.13575 53.2884C0.186097 51.9616 -0.191071 50.3519 0.0918048 48.7422L7.18391 17.6057C7.56781 15.996 8.60502 14.7634 10.0261 14.1034L38.893 0.188584C39.6473 0 40.4959 0 41.257 0C42.0181 0 42.8667 0.094292 43.6278 0.47146L72.4878 14.292ZM70.9253 46.6812C70.9253 46.7755 71.0196 46.7755 71.1139 46.7755C71.9625 46.9641 72.7236 47.7252 72.8044 48.7489C72.5215 49.51 71.7604 50.0758 70.9118 50.0758C70.7232 50.0758 70.6289 50.0758 70.4403 49.9815C70.3861 49.9272 70.3631 49.9042 70.3354 49.8944C70.3149 49.8872 70.2918 49.8872 70.2518 49.8872C70.1413 49.8872 70.0632 49.8548 69.9985 49.828C69.9527 49.8091 69.9137 49.7929 69.8746 49.7929C69.588 49.7225 69.3577 49.5996 69.1025 49.4633C69.0158 49.417 68.9263 49.3692 68.8306 49.3214C68.6421 49.3214 68.4535 49.2271 68.2649 49.1328H68.1706C67.2209 48.7557 66.1837 48.4728 65.1398 48.2842H65.0455C64.7626 48.2842 64.4797 48.3785 64.2912 48.5671C64.2912 48.5671 64.2912 48.6614 64.1969 48.6614L63.4425 48.5671C61.7385 53.9619 58.0477 58.5014 53.2186 61.4379L53.5015 62.1923C53.5015 62.1923 53.4072 62.1923 53.4072 62.2866C53.2186 62.5762 53.2186 62.9534 53.3129 63.2362C53.6901 64.1859 54.1683 65.1355 54.8283 65.9842V66.1727C55.0169 66.3613 55.1112 66.4556 55.2055 66.6442C55.4883 66.9338 55.6769 67.2167 55.8655 67.5939C55.9598 67.6882 56.0541 67.7824 56.0541 67.8767C56.0541 67.8767 56.1484 67.8767 56.1484 67.971C56.337 68.4425 56.337 68.9207 56.2427 69.3921C56.1484 69.8703 55.7712 70.2475 55.394 70.4361C55.335 70.4558 55.2801 70.4754 55.2275 70.4943C55.0283 70.5656 54.8635 70.6247 54.6397 70.6247C53.8854 70.6247 53.2186 70.1465 52.8414 69.4864C52.7471 69.4864 52.7471 69.3921 52.7471 69.3921C52.7 69.345 52.6764 69.2979 52.6528 69.2507C52.6293 69.2036 52.6057 69.1564 52.5586 69.1093C52.37 68.8197 52.2757 68.4425 52.1814 68.0653L51.9928 67.4996V67.4053C51.7211 66.4025 51.2691 65.4929 50.816 64.581C50.7975 64.5436 50.7789 64.5062 50.7603 64.4688C50.5717 64.1859 50.2888 63.9973 50.0059 63.903C50.0059 63.8559 50.0059 63.8323 49.9941 63.8205C49.9824 63.8087 49.9588 63.8087 49.9116 63.8087L49.5345 63.1487C49.2886 63.2219 49.0369 63.3015 48.7807 63.3824C48.0473 63.6142 47.2773 63.8575 46.5037 63.9973C44.7997 64.4688 43.0957 64.6573 41.3917 64.6573C38.5562 64.6573 35.8083 64.1859 33.1613 63.1419L32.7842 63.8963C32.7842 63.9434 32.7842 63.967 32.7724 63.9788C32.7606 63.9906 32.737 63.9906 32.6899 63.9906C32.407 64.0849 32.1241 64.2734 31.9355 64.5563C31.4574 65.506 30.9859 66.4489 30.703 67.4928L30.5144 68.0586C30.4668 68.2526 30.3951 68.4207 30.3236 68.5883C30.2536 68.7524 30.1839 68.9159 30.1373 69.1025C30.043 69.1968 29.9487 69.2911 29.9487 69.3854C29.8544 69.3854 29.8544 69.4797 29.8544 69.4797C29.4772 70.1465 28.8104 70.6179 28.0561 70.6179C27.8675 70.6179 27.5846 70.5236 27.3961 70.4294C26.5474 69.9579 26.1703 68.8264 26.6417 67.8767C26.736 67.8767 26.736 67.7824 26.736 67.7824C26.7832 67.7353 26.8067 67.6882 26.8303 67.641C26.8539 67.5939 26.8775 67.5467 26.9246 67.4996C27.0458 67.335 27.1498 67.1718 27.2438 67.024C27.3691 66.827 27.4769 66.6577 27.5846 66.5499C27.7732 66.3613 27.8675 66.267 27.9618 66.0785V65.9842C28.5276 65.1288 29.1001 64.1859 29.4772 63.2362C29.5715 62.9466 29.5715 62.5694 29.3829 62.2866C29.3829 62.2866 29.2886 62.2866 29.2886 62.1923L29.7601 61.5322C28.8172 61.0608 28.0561 60.4883 27.2075 59.8282C23.5166 56.9928 20.8697 53.1066 19.4486 48.7557L18.6 48.85C18.6 48.85 18.6 48.7557 18.5057 48.7557C18.3171 48.5671 18.0342 48.4728 17.7513 48.4728H17.657C16.5188 48.6614 15.5759 48.9443 14.5319 49.3214H14.4377C14.2491 49.3214 14.0605 49.4157 13.8719 49.51C13.7605 49.5463 13.6362 49.5965 13.5039 49.6499C13.2922 49.7354 13.0601 49.8291 12.828 49.8872C12.7994 49.8872 12.7536 49.8785 12.7035 49.8691C12.5883 49.8474 12.4508 49.8214 12.4508 49.8872C12.4508 49.9343 12.4508 49.9579 12.439 49.9697C12.4272 49.9815 12.4036 49.9815 12.3565 49.9815C12.1679 50.0758 12.0736 50.0758 11.885 50.0758C11.0364 50.17 10.181 49.5976 9.99246 48.7489C9.80388 47.7117 10.4639 46.7621 11.5079 46.5735C11.5621 46.5193 11.5851 46.4962 11.6129 46.4864C11.6333 46.4792 11.6564 46.4792 11.6965 46.4792C11.8069 46.4792 11.885 46.4468 11.9497 46.42C11.9955 46.4011 12.0346 46.3849 12.0736 46.3849C12.2664 46.3849 12.4575 46.3611 12.6478 46.3374C12.8364 46.314 13.0241 46.2906 13.2119 46.2906C13.4004 46.1963 13.589 46.1963 13.7776 46.1963C14.9158 46.102 15.9531 45.9134 16.997 45.6306C17.2799 45.442 17.5628 45.2534 17.657 44.9705C17.657 44.9705 17.7513 44.9705 17.7513 44.8762L18.5057 44.6876C17.657 39.2928 18.8828 33.8037 21.8194 29.1631C21.8665 29.0689 21.9137 28.9981 21.9608 28.9274C22.008 28.8567 22.0551 28.786 22.1022 28.6917L21.5549 28.1443C21.5979 27.8731 21.4258 27.5438 21.2536 27.3716C20.4993 26.6173 19.5564 26.0448 18.6067 25.479L18.041 25.1961C17.6571 25.0076 17.2799 24.819 16.997 24.6304C16.9027 24.6304 16.7141 24.4418 16.7141 24.4418C16.7141 24.4418 16.7141 24.3475 16.6198 24.3475C15.8655 23.6875 15.6769 22.5492 16.2427 21.7006C16.5255 21.2292 17.0037 21.0406 17.5695 21.0406C18.0477 21.0406 18.5191 21.2292 18.8963 21.512L18.9906 21.6063C19.0378 21.6535 19.0849 21.677 19.132 21.7006C19.1792 21.7242 19.2263 21.7478 19.2735 21.7949C19.4149 21.9363 19.5328 22.0778 19.6506 22.2192C19.7685 22.3606 19.8864 22.5021 20.0278 22.6435C20.0564 22.6721 20.0936 22.7006 20.1342 22.7318C20.2277 22.8036 20.3392 22.8892 20.405 23.0207C21.065 23.775 21.9204 24.5361 22.769 25.1961C22.9576 25.2904 23.1462 25.3847 23.3348 25.3847C23.4452 25.3847 23.5234 25.3524 23.5881 25.3256C23.6338 25.3066 23.6729 25.2904 23.7119 25.2904H23.8062L24.372 25.6676C27.4904 22.3539 31.5651 19.9899 36.0103 19.0402C36.1821 19.0118 36.3517 18.9833 36.5193 18.9551C37.4619 18.7969 38.3434 18.6488 39.2297 18.5688L39.324 17.8144V17.6259C39.6069 17.4373 39.7012 17.1544 39.7955 16.8715C39.7955 15.7333 39.7955 14.6961 39.6069 13.6521V13.5578C39.6069 13.3692 39.6069 13.1807 39.5126 12.9921L39.5077 12.9722C39.4151 12.5952 39.324 12.2245 39.324 11.8538V11.3824C39.324 10.9042 39.5126 10.4327 39.8898 10.0556C40.3612 9.58409 40.9337 9.30122 41.4995 9.39551C42.4491 9.4898 43.2034 10.4327 43.1091 11.3824V11.9616C43.0622 12.1527 43.0386 12.3421 43.0152 12.5307C42.9915 12.721 42.9679 12.9104 42.9206 13.0998C42.9206 13.1941 42.897 13.2884 42.8734 13.3827C42.8498 13.477 42.8263 13.5713 42.8263 13.6656V13.7599C42.6377 14.8981 42.6377 15.9353 42.6377 16.9793C42.732 17.2622 42.8263 17.545 43.1091 17.7336V17.6393L43.2034 18.3937C47.6554 18.8719 52.0063 20.5691 55.5085 23.317C55.8857 23.6942 56.2881 24.073 56.6905 24.4519C57.093 24.8307 57.4954 25.2096 57.8726 25.5868L58.6269 25.1153H58.7212C58.8155 25.2096 59.0041 25.2096 59.0984 25.2096C59.287 25.2096 59.4755 25.1153 59.6641 25.021C60.5127 24.4553 61.3681 23.6942 62.0282 22.9399C62.0567 22.9113 62.0939 22.8828 62.1345 22.8516C62.228 22.7798 62.3396 22.6942 62.4053 22.5627C62.5939 22.2798 62.8768 21.997 63.1597 21.7141C63.254 21.7141 63.3482 21.6198 63.4425 21.5255L63.5368 21.4312C63.914 21.1483 64.3922 20.9597 64.8636 20.9597C65.3418 20.9597 65.9076 21.2426 66.1905 21.6198C66.8573 22.4684 66.6619 23.6067 65.8133 24.2667C65.8133 24.3027 65.8271 24.325 65.8388 24.344C65.8578 24.3747 65.8716 24.397 65.8133 24.4553C65.7662 24.5024 65.719 24.526 65.6719 24.5496C65.6247 24.5731 65.5776 24.5967 65.5304 24.6439C65.3319 24.7414 65.1603 24.839 64.9888 24.9365C64.8287 25.0275 64.6686 25.1186 64.4865 25.2096L63.9207 25.4925C62.9778 26.0582 62.1225 26.6307 61.2738 27.3851C61.0852 27.5737 60.9909 27.9508 60.9909 28.2337V28.328L60.4252 28.8937C61.9406 31.2578 63.0788 33.9047 63.7389 36.6526C64.3046 39.4006 64.4932 42.2361 64.1161 44.984L64.8704 45.1726C64.9647 45.4555 65.2476 45.7383 65.5304 45.8326C66.5744 46.1155 67.7059 46.3041 68.7498 46.3984H68.8441C69.0327 46.4927 69.2213 46.4927 69.4099 46.4927C69.7938 46.4927 70.1709 46.4927 70.5481 46.587C70.7367 46.587 70.9253 46.587 70.9253 46.6812ZM21.5549 28.1443L21.5365 28.1259V28.2202C21.5447 28.1956 21.5508 28.1702 21.5549 28.1443ZM41.2098 45.0715L43.7625 43.839L44.436 41.0911L42.6377 38.8213H39.7955L37.9972 41.0911L38.6572 43.839L41.2098 45.0715ZM59.5631 43.6504C59.7517 41.6636 59.6574 39.6767 59.1859 37.6898C58.7145 35.703 57.9534 33.8104 56.9095 32.1064L49.8106 38.5452C49.622 38.7338 49.5277 38.9224 49.4334 39.2052C49.2449 40.0539 49.7231 40.9092 50.5717 41.0978L59.5631 43.6504ZM46.3151 34.0933L54.074 28.6041C51.2385 25.7686 47.5476 23.9704 43.3853 23.4989L43.951 33.0561C43.951 33.3389 44.0453 33.5275 44.2339 33.7161C44.7054 34.3761 45.655 34.4704 46.3151 34.0933ZM38.8391 23.3979L36.9465 23.775C33.6328 24.5361 30.602 26.2401 28.1504 28.6041L36.0036 34.1876C36.0626 34.2072 36.1175 34.2269 36.1701 34.2457C36.3693 34.3171 36.5341 34.3761 36.7579 34.3761C37.6133 34.3761 38.3676 33.7094 38.3676 32.8607L38.8391 23.3979ZM32.407 38.3499L25.4025 32.1064C23.3146 35.6087 22.3717 39.6767 22.6613 43.6437L31.8413 40.9968C32.2184 40.9025 32.407 40.8082 32.5956 40.5253C33.1613 39.8653 33.0671 38.9156 32.407 38.3499ZM33.1613 46.4927L23.7928 48.1024C25.1129 51.8875 27.7665 55.2012 31.0802 57.3834L34.6768 48.6748C34.8653 48.3852 34.8653 48.0081 34.771 47.7252C34.6768 46.9641 33.9157 46.4927 33.1613 46.4927ZM41.2098 60.3064C42.631 60.3064 43.951 60.1179 45.2779 59.835C45.9027 59.6565 46.443 59.5624 46.9902 59.4672C47.0211 59.4618 47.052 59.4565 47.0829 59.4511L42.5367 51.214L42.5366 51.2139C42.2538 50.9311 42.0652 50.7425 41.7823 50.554C41.1223 50.1768 40.3612 50.3654 39.8898 50.9311L35.2492 59.3568C37.1418 59.9293 39.223 60.3064 41.2098 60.3064ZM51.1442 57.2824C53.4139 55.8612 55.4008 53.8744 56.8219 51.6046C57.5762 50.5607 58.1487 49.3282 58.6134 48.0081L49.1506 46.3984C48.8677 46.3984 48.5848 46.4927 48.3019 46.587C47.6419 46.8698 47.2647 47.6309 47.4533 48.3852L51.1442 57.2824Z" fill=""/>
</svg>
