<svg viewBox="0 0 403 80" fill="none" xmlns="http://www.w3.org/2000/svg">
<path d="M73.0929 63.4561H36.5464H0L18.2732 31.8059L36.5464 0.155762L54.8197 31.8059L73.0929 63.4561Z" fill="#76F09B"/>
<path d="M339.733 0.899902V64.0023H402.835V0.899902H339.733Z" fill="#F55F5F"/>
<path d="M299.506 63.5731C304.018 63.5731 307.676 59.9153 307.676 55.403C307.676 50.8908 304.018 47.2329 299.506 47.2329C294.994 47.2329 291.336 50.8908 291.336 55.403C291.336 59.9153 294.994 63.5731 299.506 63.5731Z" fill="#F5B862"/>
<path d="M59.5138 22.598C62.4455 18.8771 66.3919 17.0166 71.3532 17.0166C76.3144 17.0166 79.838 18.8489 81.924 22.5134C84.912 18.8489 88.9712 17.0166 94.1016 17.0166C102.784 17.0166 107.125 22.4007 107.125 33.1688V63.1054H94.1016V32.5769C94.1016 28.9123 92.6076 27.08 89.6196 27.08C87.4772 27.08 85.7577 27.8975 84.461 29.5325V63.1054H71.5223V32.5769C71.5223 28.9123 70.0001 27.08 66.9557 27.08C64.9261 27.08 63.2066 27.8975 61.7971 29.5325V63.1054H48.8585V31.3084L47.9282 18.7079L57.9916 17.4394L59.1756 22.598H59.5138Z" fill="#4B5562"/>
<path d="M134.542 32.3232C134.542 30.4627 134.147 29.1096 133.358 28.264C132.568 27.3619 131.046 26.9109 128.791 26.9109C126.536 26.9109 122.815 27.7284 117.628 29.3633L113.992 21.4141C115.909 20.3429 118.559 19.3563 121.941 18.4542C125.38 17.4958 128.735 17.0166 132.005 17.0166C135.331 17.0166 138.093 17.4112 140.292 18.2005C142.547 18.9898 144.154 20.1738 145.112 21.7523C146.127 23.2745 146.776 24.7967 147.058 26.3189C147.396 27.8411 147.565 29.758 147.565 32.0695V47.968C147.565 50.054 147.762 51.7453 148.157 53.042C148.608 54.3386 149.538 55.7481 150.948 57.2703L143.59 64.1202C142.294 63.5 141.025 62.5698 139.785 61.3295C138.601 60.0892 137.727 58.9334 137.163 57.8623H136.825C133.555 62.0342 129.411 64.1202 124.394 64.1202C116.275 64.1202 112.216 59.9201 112.216 51.5198C112.216 47.0659 113.485 43.7396 116.022 41.5409C118.615 39.3422 122.336 37.82 127.184 36.9743L134.542 35.7058V32.3232ZM124.478 50.1667C124.478 52.9292 125.944 54.3105 128.876 54.3105C131.131 54.3105 133.048 53.5212 134.626 51.9426V43.9933C131.018 44.5007 128.425 45.2055 126.846 46.1075C125.268 46.9532 124.478 48.3062 124.478 50.1667Z" fill="#4B5562"/>
<path d="M170.776 17.6929H182.192L180.67 27.0798H170.776V46.4456C170.776 49.3208 171.17 51.3223 171.96 52.4498C172.749 53.5774 174.102 54.1411 176.019 54.1411C176.808 54.1411 178.415 53.8592 180.839 53.2955L183.122 60.8219C182.051 61.6676 180.304 62.4287 177.879 63.1052C175.511 63.7817 173.341 64.12 171.368 64.12C165.786 64.12 162.122 62.7106 160.374 59.8917C158.683 57.0164 157.837 52.3371 157.837 45.8536V27.0798H151.325L152.509 18.6232L158.091 17.8621L158.598 9.40542L170.776 5.76904V17.6929Z" fill="#4B5562"/>
<path d="M202.653 17.6929H214.07L212.548 27.0798H202.653V46.4456C202.653 49.3208 203.048 51.3223 203.837 52.4498C204.627 53.5774 205.98 54.1411 207.897 54.1411C208.686 54.1411 210.293 53.8592 212.717 53.2955L215 60.8219C213.929 61.6676 212.181 62.4287 209.757 63.1052C207.389 63.7817 205.219 64.12 203.245 64.12C197.664 64.12 193.999 62.7106 192.252 59.8917C190.56 57.0164 189.715 52.3371 189.715 45.8536V27.0798H183.203L184.387 18.6232L189.968 17.8621L190.476 9.40542L202.653 5.76904V17.6929Z" fill="#4B5562"/>
<path d="M238.252 17.0166C243.89 17.0166 248.034 18.567 250.683 21.6678C252.882 24.2048 254.235 28.4331 254.742 34.3527C254.912 36.7206 254.996 39.6805 254.996 43.2323L248.992 44.0779H231.571C231.571 47.4042 232.191 49.913 233.432 51.6043C234.672 53.2393 236.871 54.0568 240.028 54.0568C243.241 54.0568 247.103 53.2393 251.614 51.6043L254.235 59.5536C248.879 62.598 243.298 64.1202 237.491 64.1202C224.355 64.1202 217.787 56.3401 217.787 40.7798C217.787 33.4507 219.478 27.672 222.861 23.4437C226.3 19.159 231.43 17.0166 238.252 17.0166ZM241.127 29.0251C240.563 27.7284 239.295 27.08 237.322 27.08C235.349 27.08 233.939 27.8129 233.093 29.2788C232.248 30.6882 231.769 32.8306 231.656 35.7058H241.973C241.973 32.4923 241.691 30.2654 241.127 29.0251Z" fill="#4B5562"/>
<path d="M272.006 26.7418C272.852 23.7537 274.261 21.3859 276.234 19.6382C278.207 17.8905 280.491 17.0166 283.084 17.0166C285.734 17.0166 288.13 17.5522 290.272 18.6234L287.312 28.8559C285.565 28.3485 284.071 28.0948 282.83 28.0948C280.632 28.0948 278.63 28.9123 276.826 30.5473C275.078 32.1822 274.205 34.5783 274.205 37.7354V63.1054H261.266V31.2238L260.336 18.7079L270.145 17.4394L271.668 26.7418H272.006Z" fill="#4B5562"/>
<path d="M333.761 62.241C333.761 66.6948 333 70.0211 331.478 72.2199C330.012 74.4186 326.883 77.012 322.091 80L314.987 72.5581C317.693 70.5285 319.328 68.7808 319.892 67.315C320.512 65.8492 320.822 63.0303 320.822 58.8584V18.6892L333.761 17.3361V62.241ZM326.827 14.8837C322.147 14.8837 319.808 12.2622 319.808 7.01903C319.808 4.98943 320.428 3.32628 321.668 2.02959C322.908 0.676529 324.938 0 327.757 0C332.38 0 334.691 2.64974 334.691 7.94925C334.691 9.97885 334.071 11.642 332.831 12.9387C331.591 14.2354 329.589 14.8837 326.827 14.8837Z" fill="#4B5562"/>
<path d="M340.438 30.6974C340.438 26.5819 342.073 23.2556 345.343 20.7186C348.613 18.1816 352.728 16.9131 357.69 16.9131C362.651 16.9131 366.513 18.0688 369.275 20.3803C372.038 22.6354 373.644 25.8208 374.095 29.9363L362.764 32.1351C362.369 28.3014 360.48 26.3845 357.098 26.3845C355.857 26.3845 354.842 26.751 354.053 27.4839C353.264 28.2168 352.869 29.0061 352.869 29.8518C352.869 30.6974 352.954 31.3458 353.123 31.7968C353.348 32.2478 353.659 32.6707 354.053 33.0653C354.504 33.4599 354.927 33.8264 355.322 34.1647C355.773 34.4466 356.365 34.7566 357.098 35.0949C357.887 35.4332 358.563 35.7151 359.127 35.9406C359.916 36.3916 361.721 37.2091 364.539 38.393C367.358 39.5205 369.726 40.9864 371.643 42.7905C373.56 44.5945 374.518 47.2161 374.518 50.6551C374.518 54.0942 372.94 57.195 369.783 59.9575C366.682 62.6636 362.284 64.0167 356.59 64.0167C350.896 64.0167 345.202 62.3535 339.508 59.0272L344.159 50.6551C349.797 53.0794 353.94 54.2915 356.59 54.2915C357.887 54.2915 358.958 54.0096 359.804 53.4459C360.706 52.8821 361.157 52.0364 361.157 50.9089C361.157 49.7249 360.537 48.7665 359.296 48.0336C358 47.2443 357.013 46.7087 356.336 46.4268C350.981 44.3409 346.921 42.1703 344.159 39.9152C341.678 37.8856 340.438 34.813 340.438 30.6974Z" fill="#4B5562"/>
</svg>
