<svg viewBox="0 0 36 80" fill="none" xmlns="http://www.w3.org/2000/svg">
<path d="M17.716 0.218018L19.851 4.22802C20.3148 4.95228 20.8552 5.62448 21.463 6.23302C23.25 8.02002 24.948 9.89302 26.473 11.898C30.09 16.648 32.53 21.897 34.272 27.627C35.317 31.112 35.885 34.686 35.927 38.301C36.102 49.108 32.397 58.387 24.928 66.099C23.7129 67.3221 22.4002 68.4441 21.003 69.454C20.263 69.454 19.913 68.887 19.608 68.364C19.04 67.407 18.693 66.314 18.518 65.227C18.256 63.92 18.083 62.612 18.168 61.262V60.652C18.108 60.497 17.456 0.502018 17.715 0.219018L17.716 0.218018Z" fill="#599636"/>
<path d="M17.7161 0.0859068C17.6291 -0.0890932 17.5411 0.0439068 17.4541 0.127907C17.4961 1.00291 17.1921 1.78291 16.7141 2.52791C16.2141 3.26791 15.4941 3.83491 14.7971 4.44491C10.9221 7.79991 7.87208 11.8529 5.43008 16.3849C2.18008 22.4839 0.505076 29.0209 0.0300762 35.9029C-0.186924 38.3849 0.815076 47.1449 1.59708 49.6719C3.73208 56.3809 7.56708 62.0039 12.5341 66.8829C13.7541 68.0579 15.0341 69.1479 16.4091 70.1949C16.8011 70.1949 16.8441 69.8449 16.9091 69.5849C17.081 69.0285 17.212 68.4604 17.3011 67.8849L18.1761 61.3499L17.7161 0.0849068V0.0859068Z" fill="#6CAC48"/>
<path d="M19.851 72.1079C19.938 71.1079 20.418 70.2779 20.941 69.4509C20.441 69.2339 20.026 68.8009 19.721 68.3189C19.459 67.8839 19.241 67.3619 19.071 66.8819C18.461 65.0519 18.331 63.1319 18.156 61.2619V60.1299C17.939 60.3049 17.894 61.7849 17.894 62.0049C17.767 63.9809 17.505 65.9469 17.109 67.8869C16.979 68.6719 16.892 69.4539 16.409 70.1519C16.409 70.2389 16.409 70.3269 16.451 70.4569C17.236 72.7669 17.451 75.1189 17.583 77.5159V78.3909C17.583 79.4359 17.541 79.2159 18.408 79.5659C18.758 79.6959 19.148 79.7409 19.498 80.0009C19.76 80.0009 19.803 79.7839 19.803 79.6089L19.673 78.1719V74.1619C19.631 73.4619 19.76 72.7669 19.848 72.1119L19.851 72.1079Z" fill="#C2BFBF"/>
</svg>
