<svg viewBox="0 0 81 80" fill="none" xmlns="http://www.w3.org/2000/svg">
<path d="M59.3737 75.0049C59.0762 75.1624 59.1012 75.2124 59.3862 75.0674C59.4787 75.0299 59.5562 74.9774 59.6237 74.9149C59.6237 74.8624 59.6237 74.8624 59.3737 75.0049ZM59.9737 74.6799C59.8312 74.7974 59.8312 74.7974 60.0012 74.7199C60.0912 74.6674 60.1712 74.6174 60.1712 74.6024C60.1712 74.5349 60.1312 74.5499 59.9737 74.6799ZM60.3637 74.4449C60.2212 74.5624 60.2212 74.5624 60.3912 74.4849C60.4837 74.4324 60.5612 74.3774 60.5612 74.3649C60.5612 74.3024 60.5212 74.3149 60.3637 74.4449ZM60.7587 74.2124C60.6162 74.3299 60.6162 74.3299 60.7812 74.2499C60.8737 74.1999 60.9512 74.1474 60.9512 74.1324C60.9512 74.0699 60.9112 74.0824 60.7587 74.2124ZM61.2912 73.8599C61.0187 74.0424 60.9237 74.1599 61.1737 74.0299C61.3412 73.9274 61.6262 73.7024 61.5762 73.7024C61.4687 73.7424 61.3787 73.8099 61.2887 73.8599H61.2912ZM37.3833 0.0183754C37.2008 0.0308757 36.6532 0.0808767 36.1732 0.120878C24.803 1.1509 14.1653 7.27102 7.42265 16.6987C3.69507 21.8663 1.27503 27.8689 0.362507 34.1716C0.0400008 36.3716 0 37.0216 0 40.0042C0 42.9842 0.0400008 43.6243 0.362507 45.8243C2.54005 60.8521 13.2303 73.4674 27.7206 78.1425C30.3281 78.975 33.0607 79.55 36.1732 79.9025C37.3833 80.0325 42.6159 80.0325 43.8259 79.9025C49.206 79.3025 53.7486 77.975 58.2437 75.6824C58.9337 75.3324 59.0637 75.2399 58.9712 75.1624C56.7711 72.2598 54.6111 69.3548 52.4486 66.4247L46.0559 57.792L38.0483 45.9293C35.3782 41.9592 32.6982 37.9991 29.9756 34.0691C29.9481 34.0691 29.9131 39.3417 29.8981 45.7718C29.8706 57.0345 29.8706 57.492 29.7281 57.752C29.5856 58.0646 29.3506 58.3246 29.0381 58.4696C28.7906 58.5871 28.5681 58.6121 27.3856 58.6121H26.033L25.6805 58.3921C25.4605 58.2496 25.278 58.0521 25.1605 57.8195L24.9905 57.467L25.003 41.7892L25.0305 26.1114L25.278 25.7989C25.4355 25.6064 25.6305 25.4489 25.8505 25.3314C26.178 25.1739 26.308 25.1489 27.6606 25.1489C29.2481 25.1489 29.5106 25.2114 29.9281 25.6689C33.1682 30.499 36.3982 35.3416 39.5758 40.1992C44.7734 48.0794 51.8686 58.8321 55.3561 64.1072L61.6987 73.7049L62.0113 73.4974C65.0588 71.4648 67.8314 69.0448 70.2239 66.2847C75.264 60.5146 78.5341 53.417 79.6416 45.8418C79.9641 43.6418 80.0041 42.9892 80.0041 40.0092C80.0041 37.0266 79.9641 36.3891 79.6416 34.1891C77.4641 19.1613 66.7739 6.54601 52.2836 1.86841C49.5735 1.0109 46.7859 0.425884 43.9634 0.125878C43.2059 0.0483761 38.0358 -0.0441258 37.3858 0.0233755L37.3833 0.0183754ZM53.7511 24.2114C54.1286 24.3914 54.4136 24.7314 54.5436 25.1214C54.6111 25.3314 54.6236 29.679 54.6111 39.4717L54.5836 53.532L52.1111 49.7319L49.6235 45.9293V35.7216C49.6235 29.104 49.651 25.3939 49.686 25.2114C49.8035 24.7939 50.0885 24.4439 50.4685 24.2239C50.7785 24.0664 50.8985 24.0539 52.1361 24.0539C53.2936 24.0539 53.4911 24.0664 53.7511 24.2114Z" fill="black"/>
</svg>
