<svg viewBox="0 0 71 80" fill="none" xmlns="http://www.w3.org/2000/svg">
<path d="M34.8796 0H35.0654C36.0172 0.453369 36.9443 0.956988 37.8428 1.50873C48.1848 7.456 58.5268 13.4052 68.8688 19.3563C69.2689 19.5698 69.5956 19.8987 69.8065 20.3002C70.0175 20.7017 70.1029 21.1573 70.0518 21.6079C70.0289 34.1492 70.0518 46.6876 70.0375 59.2232C69.9029 59.8214 69.5372 60.3422 69.0202 60.6719C58.0229 67.004 47.0247 73.3322 36.0255 79.6567C35.7589 79.8599 35.4376 79.9785 35.103 79.9973C34.7684 80.0162 34.4358 79.9344 34.1481 79.7624C23.1375 73.4494 12.1373 67.1249 1.14762 60.7891C0.790457 60.6202 0.491305 60.3493 0.287893 60.0106C0.0844813 59.672 -0.0140793 59.2806 0.0046426 58.886C0.0046426 46.3476 0.0046426 33.8101 0.0046426 21.2736C-0.0223064 20.8807 0.0685128 20.4887 0.265492 20.1477C0.462472 19.8066 0.756664 19.5321 1.11047 19.3591C11.4391 13.4195 21.7678 7.476 32.0965 1.52873C33.0166 1.00296 33.9195 0.44576 34.8796 0Z" fill="#019639"/>
<path d="M14.3604 24.3965C14.3604 34.7385 14.3604 45.0815 14.3604 55.4254C14.3472 55.9982 14.4483 56.568 14.6578 57.1013C14.8673 57.6346 15.1809 58.1208 15.5805 58.5315C16.3463 59.288 17.3484 59.7591 18.4196 59.8662C19.4908 59.9734 20.5663 59.71 21.4668 59.1201C22.0696 58.7105 22.563 58.1597 22.9042 57.5158C23.2454 56.8718 23.4239 56.1542 23.4241 55.4254C23.4241 47.9389 23.4099 40.4525 23.4241 32.966C30.2496 41.1382 37.0894 49.2991 43.9434 57.4485C44.8956 58.4132 46.0749 59.1233 47.3729 59.5137C48.671 59.9041 50.0463 59.9623 51.3727 59.683C52.3093 59.4985 53.162 59.0183 53.8055 58.3132C54.4489 57.608 54.8492 56.715 54.9474 55.7655C54.9626 45.2101 54.9626 34.6557 54.9474 24.1022C54.849 22.9757 54.3319 21.927 53.4983 21.1629C52.6646 20.3989 51.5749 19.9751 50.444 19.9751C49.3132 19.9751 48.2235 20.3989 47.3898 21.1629C46.5562 21.927 46.0391 22.9757 45.9407 24.1022C45.9407 31.7087 45.895 39.3066 45.9407 46.9103C39.2372 39.0066 32.6165 31.0344 25.9387 23.1021C25.0583 21.9732 23.8928 21.0995 22.5623 20.5712C21.2317 20.0428 19.7844 19.8788 18.3693 20.0961C17.2974 20.2154 16.3037 20.7148 15.5682 21.5037C14.8328 22.2926 14.4043 23.3189 14.3604 24.3965Z" fill="white"/>
</svg>
