<svg viewBox="0 0 71 80" fill="none" xmlns="http://www.w3.org/2000/svg">
<path fill-rule="evenodd" clip-rule="evenodd" d="M35.0654 0H34.8796C34.1331 0.346579 33.4212 0.760524 32.7089 1.17469C32.5051 1.29321 32.3012 1.41174 32.0965 1.52873C21.7678 7.476 11.4391 13.4195 1.11047 19.3591C0.756664 19.5321 0.462472 19.8066 0.265492 20.1477C0.0685128 20.4887 -0.0223064 20.8807 0.0046426 21.2736V58.886C-0.0140793 59.2806 0.0844813 59.672 0.287893 60.0106C0.491305 60.3493 0.790457 60.6202 1.14762 60.7891C12.1373 67.1249 23.1375 73.4494 34.1481 79.7624C34.4358 79.9344 34.7684 80.0162 35.103 79.9973C35.4376 79.9785 35.7589 79.8599 36.0255 79.6567C47.0247 73.3322 58.0229 67.004 69.0202 60.6719C69.5372 60.3422 69.9029 59.8214 70.0375 59.2232C70.0439 53.6042 70.0428 47.9846 70.0418 42.3645C70.0405 35.4465 70.0392 28.5276 70.0518 21.6079C70.1029 21.1573 70.0175 20.7017 69.8065 20.3002C69.5956 19.8987 69.2689 19.5698 68.8688 19.3563C58.5268 13.4052 48.1848 7.456 37.8428 1.50873C36.9443 0.956988 36.0172 0.453369 35.0654 0ZM14.3604 55.4254V24.3965C14.4043 23.3189 14.8328 22.2926 15.5682 21.5037C16.3037 20.7148 17.2974 20.2154 18.3693 20.0961C19.7844 19.8788 21.2317 20.0428 22.5623 20.5712C23.8928 21.0995 25.0583 21.9732 25.9387 23.1021C28.5598 26.2156 31.1721 29.3352 33.784 32.4545C37.8266 37.2821 41.8684 42.1089 45.9407 46.9103C45.9103 41.8416 45.9204 36.7755 45.9306 31.7077C45.9356 29.1731 45.9407 26.6381 45.9407 24.1022C46.0391 22.9757 46.5562 21.927 47.3898 21.1629C48.2235 20.3989 49.3132 19.9751 50.444 19.9751C51.5749 19.9751 52.6646 20.3989 53.4983 21.1629C54.3319 21.927 54.849 22.9757 54.9474 24.1022C54.9626 34.6557 54.9626 45.2101 54.9474 55.7655C54.8492 56.715 54.4489 57.608 53.8055 58.3132C53.162 59.0183 52.3093 59.4985 51.3727 59.683C50.0463 59.9623 48.671 59.9041 47.3729 59.5137C46.0749 59.1233 44.8956 58.4132 43.9434 57.4485C37.0894 49.2991 30.2496 41.1382 23.4241 32.966C23.4146 37.957 23.4178 42.948 23.421 47.9389C23.4226 50.4344 23.4241 52.9299 23.4241 55.4254C23.4239 56.1542 23.2454 56.8718 22.9042 57.5158C22.563 58.1597 22.0696 58.7105 21.4668 59.1201C20.5663 59.71 19.4908 59.9734 18.4196 59.8662C17.3484 59.7591 16.3463 59.288 15.5805 58.5315C15.1809 58.1208 14.8673 57.6346 14.6578 57.1013C14.4483 56.568 14.3472 55.9982 14.3604 55.4254Z" />
</svg>
