<svg viewBox="0 0 70 80" fill="none" xmlns="http://www.w3.org/2000/svg">
<path fill-rule="evenodd" clip-rule="evenodd" d="M31.8421 0.853073C32.8006 0.294374 33.8902 0 34.9996 0C36.109 0 37.1986 0.294374 38.1571 0.853073L67.0011 17.7491C68.8091 18.8051 70.0181 20.8921 70.0001 23.0531V56.9501C70.0141 59.2001 68.6851 61.3371 66.7771 62.3691L38.0361 79.1841C36.0841 80.3421 33.5421 80.2531 31.6511 79.0001L23.0271 73.8291C22.4401 73.4661 21.7781 73.1771 21.3631 72.5871C21.7301 72.0751 22.3851 72.0111 22.9171 71.7871C24.1161 71.3921 25.2181 70.7571 26.3191 70.1411C26.5981 69.9431 26.9381 70.0191 27.2051 70.1961L34.5621 74.6071C35.0881 74.9221 35.6201 74.5041 36.0701 74.2441L64.2901 57.7271C64.6381 57.5531 64.8311 57.1701 64.8031 56.7741L64.8061 23.2271C64.8461 22.7781 64.5951 22.3651 64.2041 22.1811L35.5631 5.43907C35.2241 5.19807 34.7781 5.19707 34.4381 5.43707L5.79909 22.1861C5.60274 22.2754 5.43903 22.4236 5.33063 22.6101C5.22223 22.7966 5.17452 23.0122 5.19409 23.2271V56.7761C5.16009 57.1711 5.36709 57.5471 5.71309 57.7171L13.3621 62.1971C14.7981 62.9991 16.5621 63.4751 18.1441 62.8611C19.5401 62.3421 20.5191 60.8641 20.4931 59.3261L20.5031 25.9761C20.4681 25.4821 20.9201 25.0751 21.3821 25.1211L25.0561 25.1241C25.5671 25.1121 25.9191 25.6431 25.8561 26.1411L25.8481 59.7021C25.8511 62.6831 24.6701 65.9271 22.0111 67.3861C18.7351 69.1461 14.6861 68.7731 11.4501 67.0851C8.6481 65.6351 5.9751 63.9231 3.2231 62.3701C1.3091 61.3431 -0.012905 59.1981 9.50298e-05 56.9501V23.0531C0.00102163 21.9645 0.288093 20.8952 0.832531 19.9526C1.37697 19.0099 2.15964 18.2269 3.1021 17.6821L31.8421 0.853073ZM40.2011 24.3341C44.3801 24.0551 48.8531 24.1691 52.6131 26.3041C55.5241 27.9401 57.1381 31.3741 57.1901 34.7281C57.1091 35.1801 56.6531 35.4301 56.2361 35.3991C55.0241 35.3971 53.8111 35.4161 52.5991 35.3901C52.0851 35.4101 51.7861 34.9191 51.7211 34.4471C51.3731 32.8421 50.5291 31.2521 49.0721 30.4781C46.8361 29.3171 44.2431 29.3751 41.8051 29.4001C40.0251 29.4981 38.1111 29.6581 36.6031 30.7431C35.4451 31.5651 35.0941 33.2251 35.5071 34.5621C35.8961 35.5221 36.9651 35.8321 37.8391 36.1171C42.8751 37.4831 48.2111 37.3471 53.1511 39.1451C55.1961 39.8781 57.1971 41.3021 57.8971 43.5231C58.8131 46.4991 58.4111 50.0571 56.3691 52.4461C54.7131 54.4121 52.3021 55.4821 49.8961 56.0641C46.6961 56.8041 43.3751 56.8231 40.1261 56.4941C37.0701 56.1331 33.8911 55.3001 31.5321 53.1411C29.5151 51.3251 28.5301 48.4941 28.6271 45.7631C28.6501 45.3021 29.0931 44.9801 29.5191 45.0181L33.1821 45.0201C33.6701 44.9841 34.0311 45.4211 34.0561 45.8981C34.2811 47.4271 34.8361 49.0321 36.1211 49.9391C38.6021 51.5991 41.7161 51.4861 44.5571 51.5321C46.9111 51.4241 49.5531 51.3911 51.4741 49.7771C52.4881 48.8571 52.7881 47.3171 52.5141 45.9921C52.2171 44.8741 51.0891 44.3531 50.1211 44.0121C45.1501 42.3811 39.7541 42.9731 34.8311 41.1291C32.8321 40.3961 30.8991 39.0111 30.1321 36.8821C29.0611 33.8681 29.5511 30.1401 31.8071 27.8311C34.0061 25.5351 37.1831 24.6501 40.2011 24.3341Z" />
</svg>
