<svg viewBox="0 0 79 80" fill="none" xmlns="http://www.w3.org/2000/svg">
<path fill-rule="evenodd" clip-rule="evenodd" d="M76.4887 49.4626C66.4577 51.4896 65.7677 48.1626 65.7677 48.1626C76.3597 32.7646 80.7867 13.2186 76.9657 8.43462C66.5427 -4.61438 48.4987 1.55762 48.1967 1.71762L48.0997 1.73462C46.1177 1.33162 43.8997 1.09162 41.4067 1.05162C36.8677 0.978617 33.4247 2.21762 30.8117 4.15862C30.8117 4.15862 -1.37733 -8.83338 0.119673 20.4986C0.437673 26.7386 9.24867 67.7156 19.7567 55.3386C23.5977 50.8126 27.3087 46.9866 27.3087 46.9866C29.1517 48.1866 31.3587 48.7986 33.6717 48.5786L33.8517 48.4296C33.7957 48.9916 33.8217 49.5416 33.9237 50.1916C31.2167 53.1546 32.0117 53.6756 26.6007 54.7666C21.1247 55.8726 24.3417 57.8406 26.4417 58.3556C28.9877 58.9796 34.8787 59.8636 38.8587 54.4036L38.6997 55.0266C39.7607 55.8586 40.5057 60.4406 40.3807 64.5946C40.2557 68.7486 40.1727 71.5996 41.0087 73.8276C41.8447 76.0556 42.6777 81.0666 49.7917 79.5736C55.7357 78.3256 58.8167 75.0906 59.2447 69.6956C59.5487 65.8596 60.2367 66.4266 60.2807 62.9976L60.8327 61.3746C61.4697 56.1756 60.9337 54.4976 64.5957 55.2776L65.4857 55.3546C68.1817 55.4746 71.7097 54.9296 73.7797 53.9866C78.2387 51.9596 80.8827 48.5746 76.4867 49.4636L76.4887 49.4626Z" />
<path fill-rule="evenodd" clip-rule="evenodd" d="M39.2907 52.4435C39.0147 62.1185 39.3597 71.8604 40.3267 74.2284C41.2937 76.5964 43.3627 81.2015 50.4777 79.7085C56.4217 78.4595 58.5847 76.0434 59.5227 70.7104C60.2137 66.7864 61.5467 55.8895 61.7177 53.6565M30.7637 3.94245C30.7637 3.94245 -1.44732 -8.95555 0.0506752 20.3765C0.368675 26.6165 9.17968 67.5945 19.6887 55.2175C23.5287 50.6915 27.0017 47.1415 27.0017 47.1415M48.1617 1.58845C47.0467 1.93145 66.0797 -5.22855 76.8957 8.31345C80.7167 13.0975 76.2887 32.6435 65.6977 48.0415M65.6977 48.0415C65.6977 48.0415 66.3877 51.3695 76.4197 49.3405C80.8147 48.4515 78.1697 51.8365 73.7117 53.8645C70.0537 55.5275 61.8517 55.9545 61.7177 53.6555C61.3727 47.7245 66.0347 49.5275 65.6977 48.0415C65.3937 46.7035 63.3087 45.3885 61.9297 42.1125C60.7257 39.2535 45.4187 17.3275 66.1747 20.5845C66.9347 20.4305 60.7617 1.24045 41.3367 0.928454C21.9117 0.616454 22.5527 24.3285 22.5527 24.3285M33.8547 50.0685C31.1467 53.0315 31.9437 53.5525 26.5317 54.6435C21.0557 55.7495 24.2727 57.7175 26.3727 58.2315C28.9187 58.8555 34.8097 59.7395 38.7897 54.2785C40.0017 52.6155 38.7827 49.9635 37.1177 49.2865C36.3127 48.9605 35.2377 48.5505 33.8547 50.0665V50.0685Z" />
<path fill-rule="evenodd" clip-rule="evenodd" d="M33.6777 50.0175C33.4047 48.2755 34.2617 46.2025 35.1807 43.7765C36.5607 40.1375 39.7457 36.4975 37.1987 24.9525C35.2997 16.3495 22.5617 23.1625 22.5537 24.3285C22.5457 25.4945 23.1297 30.2405 22.3407 35.7685C21.3117 42.9805 27.0247 49.0805 33.6037 48.4565" />
<path fill-rule="evenodd" clip-rule="evenodd" d="M30.6467 24.1545C30.5897 24.5525 31.3907 25.6165 32.4367 25.7585C33.4827 25.9005 34.3737 25.0705 34.4307 24.6725C34.4877 24.2745 33.6867 23.8355 32.6407 23.6925C31.5947 23.5495 30.7017 23.7575 30.6467 24.1545ZM62.4387 23.3425C62.4957 23.7405 61.6947 24.8045 60.6487 24.9465C59.6027 25.0885 58.7107 24.2585 58.6537 23.8605C58.5967 23.4625 59.3997 23.0235 60.4447 22.8805C61.4897 22.7375 62.3827 22.9455 62.4397 23.3435L62.4387 23.3425ZM66.1747 20.5845C66.3467 23.7095 65.4877 25.8385 65.3797 29.1645C65.2197 33.9995 67.7327 39.5345 63.9457 45.0755" />
</svg>
