<svg viewBox="0 0 85 86" fill="none" xmlns="http://www.w3.org/2000/svg">
<path fill-rule="evenodd" clip-rule="evenodd" d="M63.6967 62.8174C64.2617 58.2064 64.0927 57.5294 67.5977 58.2764L68.4877 58.3534C71.1837 58.4734 74.7097 57.9284 76.7807 56.9854C81.2397 54.9584 83.8847 51.5734 79.4877 52.4624C69.4577 54.4894 68.7677 51.1624 68.7677 51.1624C79.3597 35.7654 83.7867 16.2204 79.9657 11.4354C69.5417 -1.61461 51.4987 4.55639 51.1967 4.71739L51.1007 4.73439C49.1187 4.33139 46.9007 4.09039 44.4097 4.05139C39.8707 3.97839 36.4267 5.21739 33.8137 7.15939C33.8137 7.15939 1.62568 -5.8336 3.12268 23.4994C3.44068 29.7394 12.2517 70.7164 22.7597 58.3394C26.6007 53.8134 30.3117 49.9874 30.3117 49.9874C32.1547 51.1874 34.3617 51.7994 36.6757 51.5794L36.8547 51.4304C36.8009 52.0183 36.8252 52.6108 36.9267 53.1924C34.2197 56.1554 35.0157 56.6764 29.6037 57.7674C24.1287 58.8734 27.3447 60.8414 29.4447 61.3564C31.9907 61.9804 37.8817 62.8644 41.8627 57.4054L41.7037 58.0284C42.7657 58.8604 42.6937 64.0114 42.8447 67.6904C42.9957 71.3694 43.2467 74.8044 44.0127 76.8294C44.7787 78.8544 45.6817 84.0684 52.7947 82.5754C58.7387 81.3274 63.2837 79.5314 63.6987 62.8204" fill="black"/>
<path d="M63.6967 62.8174C64.2617 58.2064 64.0927 57.5294 67.5977 58.2764L68.4877 58.3534C71.1837 58.4734 74.7097 57.9284 76.7807 56.9854C81.2397 54.9584 83.8847 51.5734 79.4877 52.4624C69.4577 54.4894 68.7677 51.1624 68.7677 51.1624C79.3597 35.7654 83.7867 16.2204 79.9657 11.4354C69.5417 -1.61461 51.4987 4.55639 51.1967 4.71739L51.1007 4.73439C49.1187 4.33139 46.9007 4.09039 44.4097 4.05139C39.8707 3.97839 36.4267 5.21739 33.8137 7.15939C33.8137 7.15939 1.62568 -5.8336 3.12268 23.4994C3.44068 29.7394 12.2517 70.7164 22.7597 58.3394C26.6007 53.8134 30.3117 49.9874 30.3117 49.9874C32.1547 51.1874 34.3617 51.7994 36.6757 51.5794L36.8547 51.4304C36.8009 52.0183 36.8252 52.6108 36.9267 53.1924C34.2197 56.1554 35.0157 56.6764 29.6037 57.7674C24.1287 58.8734 27.3447 60.8414 29.4447 61.3564C31.9907 61.9804 37.8817 62.8644 41.8627 57.4054L41.7037 58.0284C42.7657 58.8604 42.6937 64.0114 42.8447 67.6904C42.9957 71.3694 43.2467 74.8044 44.0127 76.8294C44.7787 78.8544 45.6817 84.0684 52.7947 82.5754C58.7387 81.3274 63.2837 79.5314 63.6987 62.8204" stroke="black" stroke-width="6" stroke-linejoin="round"/>
<path fill-rule="evenodd" clip-rule="evenodd" d="M79.4887 52.4626C69.4577 54.4896 68.7677 51.1626 68.7677 51.1626C79.3597 35.7646 83.7867 16.2186 79.9657 11.4346C69.5427 -1.61438 51.4987 4.55762 51.1967 4.71762L51.0997 4.73462C49.1177 4.33162 46.8997 4.09162 44.4067 4.05162C39.8677 3.97862 36.4247 5.21762 33.8117 7.15862C33.8117 7.15862 1.62267 -5.83338 3.11967 23.4986C3.43767 29.7386 12.2487 70.7156 22.7567 58.3386C26.5977 53.8126 30.3087 49.9866 30.3087 49.9866C32.1517 51.1866 34.3587 51.7986 36.6717 51.5786L36.8517 51.4296C36.7957 51.9916 36.8217 52.5416 36.9237 53.1916C34.2167 56.1546 35.0117 56.6756 29.6007 57.7666C24.1247 58.8726 27.3417 60.8406 29.4417 61.3556C31.9877 61.9796 37.8787 62.8636 41.8587 57.4036L41.6997 58.0266C42.7607 58.8586 43.5057 63.4406 43.3807 67.5946C43.2557 71.7486 43.1727 74.5996 44.0087 76.8276C44.8447 79.0556 45.6777 84.0666 52.7917 82.5736C58.7357 81.3256 61.8167 78.0906 62.2447 72.6956C62.5487 68.8596 63.2367 69.4266 63.2807 65.9976L63.8327 64.3746C64.4697 59.1756 63.9337 57.4976 67.5957 58.2776L68.4857 58.3546C71.1817 58.4746 74.7097 57.9296 76.7797 56.9866C81.2387 54.9596 83.8827 51.5746 79.4867 52.4636L79.4887 52.4626Z" fill="#336791"/>
<path d="M42.2907 55.4435C42.0147 65.1185 42.3597 74.8604 43.3267 77.2284C44.2937 79.5964 46.3627 84.2015 53.4777 82.7085C59.4217 81.4595 61.5847 79.0434 62.5227 73.7104C63.2137 69.7864 64.5467 58.8895 64.7177 56.6565M33.7637 6.94245C33.7637 6.94245 1.55268 -5.95555 3.05068 23.3765C3.36868 29.6165 12.1797 70.5945 22.6887 58.2175C26.5287 53.6915 30.0017 50.1415 30.0017 50.1415M51.1617 4.58845C50.0467 4.93145 69.0797 -2.22855 79.8957 11.3135C83.7167 16.0975 79.2887 35.6435 68.6977 51.0415M68.6977 51.0415C68.6977 51.0415 69.3877 54.3695 79.4197 52.3405C83.8147 51.4515 81.1697 54.8365 76.7117 56.8645C73.0537 58.5275 64.8517 58.9545 64.7177 56.6555C64.3727 50.7245 69.0347 52.5275 68.6977 51.0415ZM68.6977 51.0415C68.3937 49.7035 66.3087 48.3885 64.9297 45.1125C63.7257 42.2535 48.4187 20.3275 69.1747 23.5845C69.9347 23.4305 63.7617 4.24045 44.3367 3.92845C24.9117 3.61645 25.5527 27.3285 25.5527 27.3285M36.8547 53.0685C34.1467 56.0315 34.9437 56.5525 29.5317 57.6435C24.0557 58.7495 27.2727 60.7175 29.3727 61.2315C31.9187 61.8555 37.8097 62.7395 41.7897 57.2785C43.0017 55.6155 41.7827 52.9635 40.1177 52.2865C39.3127 51.9605 38.2377 51.5505 36.8547 53.0665V53.0685Z" stroke="white" stroke-width="2" stroke-linecap="round" stroke-linejoin="round"/>
<path d="M36.6777 53.0175C36.4047 51.2755 37.2617 49.2025 38.1807 46.7765C39.5607 43.1375 42.7457 39.4975 40.1987 27.9525C38.2997 19.3495 25.5617 26.1625 25.5537 27.3285C25.5457 28.4945 26.1297 33.2405 25.3407 38.7685C24.3117 45.9805 30.0247 52.0805 36.6037 51.4565" stroke="white" stroke-width="2" stroke-linecap="round" stroke-linejoin="round"/>
<path d="M69.1747 23.5845C69.3467 26.7095 68.4877 28.8385 68.3797 32.1645C68.2197 36.9995 70.7327 42.5345 66.9457 48.0755M33.6467 27.1545C33.5897 27.5525 34.3907 28.6165 35.4367 28.7585C36.4827 28.9005 37.3737 28.0705 37.4307 27.6725C37.4877 27.2745 36.6867 26.8355 35.6407 26.6925C34.5947 26.5495 33.7017 26.7575 33.6467 27.1545ZM65.4387 26.3425C65.4957 26.7405 64.6947 27.8045 63.6487 27.9465C62.6027 28.0885 61.7107 27.2585 61.6537 26.8605C61.5967 26.4625 62.3997 26.0235 63.4447 25.8805C64.4897 25.7375 65.3827 25.9455 65.4397 26.3435L65.4387 26.3425Z" stroke="white" stroke-width="2" stroke-linecap="round" stroke-linejoin="round"/>
</svg>
