<svg viewBox="0 0 90 80" fill="none" xmlns="http://www.w3.org/2000/svg">
<path d="M44.8447 47.9878C49.2897 47.9878 52.8932 44.3844 52.8932 39.9393C52.8932 35.4943 49.2897 31.8909 44.8447 31.8909C40.3997 31.8909 36.7962 35.4943 36.7962 39.9393C36.7962 44.3844 40.3997 47.9878 44.8447 47.9878Z" fill="#00D8FF"/>
<path fill-rule="evenodd" clip-rule="evenodd" d="M0 39.9981C0 29.7766 20.0351 21.5488 44.9205 21.5488C69.8059 21.5488 89.8423 29.7778 89.8423 39.9981C89.8423 50.2184 69.8071 58.4486 44.9205 58.4486C20.0339 58.4486 0 50.2196 0 39.9981ZM4.0104 39.9981C4.0104 31.999 22.2563 25.5592 44.9205 25.5592C67.5848 25.5592 85.8307 31.999 85.8307 39.9981C85.8307 47.9972 67.5848 54.437 44.9205 54.437C22.2563 54.437 4.0104 47.9972 4.0104 39.9981Z" fill="#00D8FF"/>
<path fill-rule="evenodd" clip-rule="evenodd" d="M22.4621 1.09633C31.3143 -4.01383 48.4569 9.22181 60.9008 30.7742C73.3447 52.3267 76.2349 73.7912 67.3838 78.9014C58.5328 84.0116 41.3891 70.7759 28.9452 49.2235C16.5013 27.6711 13.6111 6.20649 22.4621 1.09633ZM24.4679 4.57008C31.395 0.570517 46.0949 13.1516 57.427 32.7788C68.7591 52.4061 72.3051 71.4281 65.378 75.4276C58.451 79.4272 43.7498 66.8461 32.4177 47.2177C21.0856 27.5893 17.5397 8.56965 24.4679 4.57008Z" fill="#00D8FF"/>
<path fill-rule="evenodd" clip-rule="evenodd" d="M67.3838 1.09766C76.236 6.20782 73.3446 27.6736 60.9007 49.2248C48.4568 70.776 31.3143 84.0141 22.462 78.9039C13.6098 73.7938 16.5012 52.328 28.9451 30.7768C41.389 9.22554 58.5316 -4.01249 67.3838 1.09766ZM65.378 4.57142C72.305 8.57098 68.7591 27.5918 57.427 47.2202C46.0949 66.8487 31.3949 79.4297 24.4678 75.4302C17.5408 71.4306 21.0867 52.4098 32.4189 32.7814C43.751 13.1529 58.4509 0.571849 65.378 4.57142Z" fill="#00D8FF"/>
</svg>
