<svg viewBox="0 0 94 80" fill="none" xmlns="http://www.w3.org/2000/svg">
<path fill-rule="evenodd" clip-rule="evenodd" d="M3.5955 16.3773C1.20549 17.3134 0.011798 18.1832 0.000237483 19.1061L0 19.1062V28.5775C0 29.5227 1.3047 30.5229 3.78644 31.7093C3.95181 31.7883 4.14224 31.877 4.35603 31.9747L3.59553 32.2691C1.20645 33.2049 0.012764 34.0743 0.000282138 34.9968L0 34.9969V44.4683C0 45.4015 1.27191 46.3883 3.69285 47.5551L3.59553 47.5928C1.20685 48.5284 0.0131641 49.398 0.000284282 50.3205L0 50.3205V59.7907C0 60.7371 1.3047 61.7372 3.78644 62.9237C6.34821 64.1478 14.9247 67.7036 23.2263 71.1455L23.2273 71.1459L23.2302 71.1471L23.2328 71.1482L23.2354 71.1493L23.238 71.1503C31.0244 74.3787 38.5665 77.5057 40.6741 78.5133C45.0297 80.5957 48.0924 80.6226 53.6075 77.7485C56.4322 76.2765 64.6045 72.7646 72.5776 69.3383L72.5781 69.3381L72.5793 69.3376L72.5819 69.3365L72.5827 69.3361L72.584 69.3356L72.5853 69.335L72.5865 69.3345L72.5878 69.334C80.1785 66.0719 87.5864 62.8885 90.0243 61.6178C92.5705 60.2908 93.6937 59.2637 93.6925 58.3279L93.6948 48.9912L93.6941 48.991C93.6866 48.0632 92.4207 47.2418 89.9611 46.3408L89.9454 46.335L90.0243 46.2942L90.0232 46.2953C92.5693 44.9684 93.6937 43.9412 93.6925 43.0055L93.6948 33.6676L93.6941 33.6673C93.6867 32.7396 92.4207 31.9182 89.9611 31.0171C89.7698 30.9471 89.5464 30.8639 89.2933 30.7688C89.5713 30.6334 89.816 30.5108 90.0243 30.4022C92.5705 29.0753 93.6937 28.0482 93.6925 27.1136L93.6948 17.7769L93.6946 17.7768C93.6882 16.849 92.4225 16.0278 89.9622 15.1265C87.5352 14.2373 79.9281 11.248 72.2946 8.24837C64.6045 5.22647 56.8877 2.19406 54.4132 1.28774C49.4826 -0.518227 47.4728 -0.444442 41.6801 1.63441L3.5955 16.3773ZM50.2415 12.6109L58.2969 11.7747L58.2957 11.7735L52.0498 9.43465L53.7059 5.46199L47.5794 7.46823L41.0817 4.92676L43.164 8.76942L36.2236 11.2722L45.5251 12.1085L48.4379 16.9501L50.2415 12.6109ZM47.9568 32.8252L47.9577 32.8256H47.9565L47.9568 32.8252ZM32.9232 26.5902L47.9568 32.8252L54.466 23.2839L32.9232 26.5902ZM38.6268 18.6495C38.6268 16.1842 33.4725 14.1862 27.1129 14.1862C20.7546 14.1862 15.599 16.1842 15.599 18.6495C15.599 21.1149 20.7546 23.1129 27.1129 23.1129C33.4713 23.1129 38.6268 21.1149 38.6268 18.6495Z" />
</svg>
