<svg viewBox="0 0 94 80" fill="none" xmlns="http://www.w3.org/2000/svg">
<path d="M90.0243 61.6177C85.0246 64.2236 59.1226 74.8744 53.6075 77.7485C48.0924 80.6225 45.0297 80.5956 40.6741 78.5132C36.3185 76.4309 8.75227 65.2964 3.78644 62.9236C1.3047 61.7372 0 60.737 0 59.7907V50.3205C0 50.3205 35.8851 42.5075 41.679 40.4298C47.4728 38.3521 49.4826 38.276 54.4121 40.082C59.3416 41.8879 88.8227 47.2075 93.6948 48.9912L93.6925 58.3279C93.6937 59.2636 92.5705 60.2908 90.0243 61.6177Z" fill="#912626"/>
<path d="M90.022 52.2038C85.0222 54.8085 59.1203 65.4593 53.6063 68.3334C48.0924 71.2075 45.0286 71.1805 40.6729 69.0982C36.3173 67.0158 8.75226 55.8813 3.78761 53.5097C-1.17705 51.138 -1.28128 49.5031 3.59553 47.5929L41.679 32.8488C47.4717 30.7711 49.4814 30.695 54.4121 32.5021C59.3428 34.3093 85.089 44.556 89.9611 46.3409C94.8332 48.1258 95.0218 49.5979 90.022 52.2038Z" fill="#C6302B"/>
<path d="M90.0243 46.2942C85.0246 48.9 59.1226 59.5508 53.6075 62.4261C48.0924 65.3013 45.0297 65.272 40.6741 63.1897C36.3185 61.1073 8.75227 49.9728 3.78644 47.6C1.3047 46.4136 0 45.4134 0 44.4683V34.9969C0 34.9969 35.8851 27.1851 41.679 25.1062C47.4728 23.0274 49.4826 22.9524 54.4121 24.7584C59.3416 26.5644 88.8227 31.8827 93.6948 33.6676L93.6925 43.0055C93.6937 43.9412 92.5693 44.9684 90.0232 46.2953" fill="#912626"/>
<path d="M90.022 36.8801C85.0222 39.486 59.1203 50.1356 53.6063 53.0108C48.0924 55.8861 45.0286 55.8568 40.6729 53.7744C36.3173 51.6921 8.75226 40.5588 3.78761 38.1859C-1.17705 35.8131 -1.28128 34.1793 3.59553 32.2691L41.679 17.5262C47.4717 15.4486 49.4814 15.3724 54.4121 17.1784C59.3428 18.9844 85.089 29.2322 89.9611 31.0171C94.8332 32.802 95.0218 34.2742 90.022 36.8801Z" fill="#C6302B"/>
<path d="M90.0243 30.4022C85.0246 33.0081 59.1226 43.6589 53.6075 46.5342C48.0924 49.4094 45.0297 49.3801 40.6741 47.2978C36.3185 45.2154 8.75227 34.0809 3.78644 31.7093C1.3047 30.5229 0 29.5227 0 28.5775V19.1062C0 19.1062 35.8851 11.2943 41.679 9.21666C47.4728 7.13898 49.4826 7.06285 54.4121 8.86882C59.3416 10.6748 88.8227 15.992 93.6948 17.7769L93.6925 27.1135C93.6937 28.0482 92.5705 29.0753 90.0243 30.4022Z" fill="#912626"/>
<path d="M90.022 20.9883C85.0222 23.5941 59.1202 34.2449 53.6063 37.119C48.0924 39.9931 45.0285 39.965 40.6729 37.8838C36.3173 35.8026 8.75223 24.6669 3.78758 22.2941C-1.17708 19.9213 -1.28131 18.2875 3.5955 16.3773L41.6801 1.63441C47.4728 -0.444442 49.4826 -0.518227 54.4132 1.28774C59.3439 3.09371 85.0901 13.3416 89.9622 15.1265C94.8344 16.9114 95.0218 18.3824 90.022 20.9883Z" fill="#C6302B"/>
<path d="M58.2969 11.7747L50.2415 12.6109L48.4379 16.9501L45.5251 12.1085L36.2236 11.2722L43.164 8.76942L41.0817 4.92676L47.5794 7.46823L53.7059 5.46199L52.0498 9.43465L58.2957 11.7735M47.9577 32.8256L32.9232 26.5902L54.466 23.2839L47.9565 32.8256M27.1129 14.1862C33.4725 14.1862 38.6268 16.1842 38.6268 18.6495C38.6268 21.1149 33.4713 23.1129 27.1129 23.1129C20.7546 23.1129 15.599 21.1149 15.599 18.6495C15.599 16.1842 20.7546 14.1862 27.1129 14.1862Z" fill="white"/>
<path d="M67.8175 12.9609L80.567 17.9994L67.828 23.0331L67.8175 12.9609Z" fill="#621B1C"/>
<path d="M53.7118 18.5405L67.8175 12.9609L67.8281 23.0331L66.4449 23.5742L53.7118 18.5405Z" fill="#9A2928"/>
</svg>
