<svg viewBox="0 0 85 80" fill="none" xmlns="http://www.w3.org/2000/svg">
<path d="M58.3887 55.8709C61.4981 55.5495 63.8576 52.8687 63.7504 49.6508C63.6893 48.0976 63.0305 46.6282 61.9117 45.5492C60.7928 44.4703 59.3004 43.8653 57.746 43.8606H57.5318C54.2068 43.9677 51.633 46.7557 51.7416 50.0807C51.8487 51.6889 52.4914 53.0829 53.4569 54.0484C49.8106 61.234 44.2346 66.4886 35.8707 70.8848C30.1876 73.887 24.2889 74.9596 18.3916 74.2098C13.5655 73.5657 9.81343 71.4218 7.45394 67.8826C4.02324 62.628 3.70046 56.9449 6.59698 51.2604C8.63511 47.1856 11.8516 44.182 13.8883 42.6809C13.4598 41.2869 12.8156 38.9274 12.4943 37.212C-3.05667 48.471 -1.44844 63.6992 3.27055 70.8848C6.80979 76.2465 13.994 79.5715 21.9294 79.5715C24.0747 79.5715 26.2185 79.3573 28.3637 78.8217C42.0894 76.1408 52.4914 67.9883 58.3887 55.8709ZM77.2618 42.5737C69.1122 33.0286 57.1019 27.774 43.3762 27.774H41.6609C40.6954 25.8445 38.6587 24.5562 36.4063 24.5562H36.1921C32.8685 24.6633 30.2948 27.4513 30.4019 30.7763C30.463 32.3294 31.1218 33.7989 32.2407 34.8778C33.3595 35.9568 34.852 36.5618 36.4063 36.5665H36.6205C37.7499 36.5112 38.841 36.1402 39.7699 35.4956C40.6988 34.851 41.4282 33.9587 41.8751 32.9201H43.8047C51.9544 32.9201 59.6756 35.2796 66.6455 39.89C72.0072 43.4293 75.8678 48.0397 78.0117 53.6171C79.8341 58.1218 79.727 62.518 77.7974 66.2715C74.7952 71.9546 69.7549 75.0653 63.1063 75.0653C58.8172 75.0653 54.7424 73.7785 52.5971 72.813C51.4174 73.8856 49.2721 75.6009 47.771 76.6736C52.3829 78.8203 57.1019 80 61.6052 80C71.9001 80 79.5128 74.3155 82.4093 68.6324C85.5186 62.4123 85.3044 51.6889 77.2618 42.5737ZM22.7864 57.6934C22.8475 59.2465 23.5063 60.716 24.6252 61.7949C25.744 62.8739 27.2365 63.4788 28.7908 63.4835H29.005C32.33 63.3764 34.9023 60.5884 34.7952 57.2634C34.7341 55.7103 34.0753 54.2408 32.9564 53.1619C31.8376 52.0829 30.3451 51.4779 28.7908 51.4733H28.5766C28.3623 51.4733 28.0395 51.4733 27.8267 51.5804C23.4305 44.2877 21.6066 36.3536 22.2508 27.774C22.6792 21.3397 24.8245 15.7638 28.578 11.1519C31.6873 7.18417 37.6932 5.25316 41.768 5.14747C53.1341 4.93323 57.9603 19.0888 58.2816 24.7718C59.6756 25.0932 62.0351 25.8445 63.6433 26.3801C62.3565 9.00807 51.633 0 41.3381 0C31.6873 0 22.7864 6.96993 19.2471 17.2649C14.3139 30.9919 17.5318 44.182 23.5362 54.584C23.0006 55.3339 22.6778 56.5136 22.7864 57.6934Z" />
</svg>
