<svg viewBox="0 0 153 80" fill="none" xmlns="http://www.w3.org/2000/svg">
<path d="M130.045 53.3881L128.469 50.1241C128.477 50.0005 128.484 49.8764 128.484 49.7517C128.484 46.0517 124.636 42.6417 118.163 39.9113V42.1816C117.532 41.9311 116.874 41.6872 116.19 41.4515V40.3932C106.939 37.0569 93.1666 34.9399 77.7827 34.9399C64.3418 34.9399 52.13 36.5559 43.0893 39.1892V42.8761H43.0891V38.4136C33.8267 41.357 28.0842 45.4461 28.0842 49.9673C28.0842 50.68 28.2279 51.382 28.5041 52.0706L27.5607 53.7501C27.5607 53.7501 26.8047 54.7306 28.1358 56.7995C29.3098 58.6239 35.1906 65.7649 38.2945 69.5045C39.6277 71.4216 40.5319 72.6025 40.6108 72.4883C40.7355 72.3074 39.7818 68.708 37.1342 64.6013C35.8986 62.396 34.4234 59.4738 33.5376 57.3153C36.0101 58.8804 50.5364 66.1951 80.1667 66.1653C110.449 66.135 123.909 56.6562 125.386 55.3658C124.87 57.4397 123.106 61.6355 121.699 64.5861C119.388 68.8062 118.551 72.4802 118.659 72.6619C118.727 72.7765 119.516 71.5601 120.679 69.5888C123.385 65.7326 128.513 58.3713 129.537 56.4961C130.698 54.3705 130.045 53.3881 130.045 53.3881Z" fill="#A52B00"/>
<path d="M139.194 53.3701L128.837 45.7412C128.74 45.4019 128.643 45.0624 128.542 44.7256L131.944 39.7976C132.291 39.2964 132.361 38.6448 132.136 38.0732C131.91 37.5043 131.416 37.0966 130.832 36.9967L125.08 36.0205C124.857 35.5656 124.623 35.1178 124.389 34.6736L126.806 29.1407C127.054 28.5772 127.002 27.9222 126.672 27.4107C126.344 26.8968 125.786 26.5966 125.192 26.6199L119.354 26.832C119.052 26.4384 118.745 26.0485 118.432 25.6655L119.774 19.7353C119.91 19.1333 119.738 18.5027 119.318 18.0653C118.901 17.6295 118.295 17.449 117.719 17.5903L112.033 18.9882C111.665 18.6628 111.291 18.3417 110.912 18.0268L111.117 11.9388C111.138 11.3226 110.851 10.7369 110.358 10.3948C109.865 10.0507 109.239 9.99904 108.7 10.2546L103.396 12.7766C102.968 12.5314 102.539 12.2888 102.104 12.0538L101.167 6.05458C101.072 5.44684 100.681 4.93047 100.133 4.69473C99.5872 4.45756 98.9618 4.53444 98.4825 4.89522L93.7532 8.44365C93.2873 8.28898 92.8195 8.14083 92.3462 7.99894L90.3077 2.30984C90.1005 1.7299 89.6225 1.30398 89.0395 1.18416C88.4587 1.06551 87.8611 1.26665 87.4583 1.71672L83.4773 6.17023C82.9963 6.11502 82.5144 6.0645 82.0316 6.0226L78.9577 0.843739C78.6465 0.319274 78.0966 0 77.5038 0C76.9126 0 76.3616 0.319274 76.0525 0.843739L72.9779 6.0226C72.4949 6.0645 72.011 6.11502 71.5306 6.17023L67.5496 1.71672C67.1463 1.26665 66.5466 1.06551 65.9674 1.18416C65.3852 1.30555 64.9064 1.7299 64.7003 2.30984L62.6603 7.99894C62.1876 8.14083 61.7198 8.29002 61.2532 8.44365L56.5254 4.89522C56.0447 4.53314 55.4188 4.45652 54.8719 4.69473C54.3261 4.93047 53.9336 5.44684 53.839 6.05458L52.901 12.0538C52.4674 12.2888 52.0377 12.5301 51.6094 12.7766L46.3055 10.2546C45.7668 9.99799 45.138 10.0507 44.6473 10.3948C44.1548 10.7369 43.8667 11.3226 43.8889 11.9388L44.0928 18.0268C43.7151 18.3417 43.3415 18.6628 42.9714 18.9882L37.2864 17.5903C36.709 17.4501 36.1035 17.6295 35.6854 18.0653C35.265 18.5027 35.0947 19.1333 35.2298 19.7353L36.5686 25.6655C36.2582 26.0499 35.9508 26.4384 35.6494 26.832L29.8116 26.6199C29.2226 26.6023 28.6602 26.8968 28.3311 27.4107C28.0012 27.9222 27.9512 28.5772 28.1967 29.1407L30.6152 34.6736C30.3804 35.1178 30.1471 35.5656 29.9222 36.0205L24.1707 36.9967C23.5861 37.0951 23.0936 37.5026 22.8662 38.0732C22.6406 38.6448 22.7139 39.2964 23.0586 39.7976L26.461 44.7256C26.4347 44.8127 26.4105 44.9004 26.3843 44.9877L16.7649 55.2062C16.7649 55.2062 15.2904 56.3615 17.4367 59.0769C19.3294 61.4722 29.0474 70.9675 34.1798 75.9418C36.3474 78.4673 37.8325 80.0312 37.9876 79.896C38.2325 79.6812 36.947 75.0864 32.6774 69.6953C29.386 64.8584 25.1144 57.4191 26.1161 56.5617C26.1161 56.5617 27.2555 55.1153 29.5415 54.0742C29.6251 54.141 29.455 54.008 29.5415 54.0742C29.5415 54.0742 77.7843 76.3282 122.534 54.4507C127.646 53.5337 130.741 56.2722 130.741 56.2722C131.808 56.8909 129.044 64.5404 126.772 69.604C123.681 75.3538 123.228 79.8403 123.49 79.9959C123.655 80.0947 124.78 78.3835 126.384 75.6602C130.342 70.1449 137.824 59.631 139.194 57.077C140.746 54.1816 139.194 53.3701 139.194 53.3701Z" fill="#F74C00"/>
<path d="M118.101 50.5147C118.101 50.5147 125.042 50.1929 134.16 40.9258L135.452 38.0569C135.452 38.0569 121.301 23.9797 143.299 14.2627C143.299 14.2627 141.373 17.41 141.938 29.5701C141.938 29.5701 148.571 27.2664 150.516 16.525C150.516 16.525 160.191 29.2808 140.008 41.2442C140.008 41.2442 130.54 56.4233 117.191 54.9693L118.101 50.5147Z" fill="#F74C00"/>
<path d="M86.6567 41.7725C86.6567 41.7725 91.4778 36.4935 96.299 41.7725C96.299 41.7725 100.087 48.8115 96.299 52.3306C96.299 52.3306 90.1006 57.2578 86.6567 52.3306C86.6567 52.3306 82.5244 48.4592 86.6567 41.7725Z" fill="black"/>
<path d="M92.2387 43.7307C92.2387 45.786 91.0271 47.4526 89.5326 47.4526C88.0383 47.4526 86.8267 45.786 86.8267 43.7307C86.8267 41.6749 88.0383 40.0083 89.5326 40.0083C91.0271 40.0083 92.2387 41.6749 92.2387 43.7307Z" fill="white"/>
<path d="M65.1392 40.3309C65.1392 40.3309 73.4088 36.6693 75.6661 44.8423C75.6661 44.8423 78.0305 54.3683 68.8747 54.9059C68.8747 54.9059 57.1996 52.6572 65.1392 40.3309Z" fill="black"/>
<path d="M69.2926 43.8658C69.2926 45.9855 68.0432 47.7046 66.5018 47.7046C64.961 47.7046 63.7112 45.9855 63.7112 43.8658C63.7112 41.7455 64.961 40.0269 66.5018 40.0269C68.0432 40.0269 69.2926 41.7455 69.2926 43.8658Z" fill="white"/>
<path d="M75.7341 58.2365L86.2803 57.3901C86.2803 57.3901 85.9229 59.0878 84.547 60.3621C84.547 60.3621 80.9196 64.3394 76.7579 60.0315C76.7579 60.0315 76.077 59.2968 75.7341 58.2365Z" fill="black"/>
<path d="M33.5052 48.4751C33.4182 48.4751 33.3328 48.4815 33.2477 48.4883C29.8234 47.7089 20.1983 45.2009 17.6542 41.1313C17.6542 41.1313 30.6062 26.3982 10.3629 16.981L12.7198 33.2811C12.7198 33.2811 6.47937 29.1109 5.1327 20.0526C5.1327 20.0526 -10.0639 31.0815 11.8398 41.6517C11.8398 41.6517 13.8265 49.1163 32.9005 55.072L32.9145 55.0152C33.1065 55.0508 33.3031 55.072 33.5052 55.072C35.3076 55.072 36.7689 53.5955 36.7689 51.7734C36.7689 49.9518 35.3076 48.4751 33.5052 48.4751Z" fill="#F74C00"/>
</svg>
