<svg viewBox="0 0 160 80" fill="none" xmlns="http://www.w3.org/2000/svg">
<path fill-rule="evenodd" clip-rule="evenodd" d="M137.773 45.9888C132.191 46.0088 127.34 46.9049 123.278 48.2299C121.788 46.2619 120.297 44.5079 120.034 43.2229C119.742 41.7229 119.391 40.8069 119.742 39.0139C120.093 37.2209 121.671 34.6689 121.642 34.4739C121.613 34.2789 121.291 33.3629 118.077 33.3439C114.863 33.3249 112.086 33.7529 111.765 34.3179C111.444 34.8829 110.83 36.1689 110.421 37.4939C109.866 39.4419 103.992 46.3979 100.631 50.0419C99.5498 48.6199 98.6148 47.3729 98.4098 46.3789C98.1178 44.8789 97.7668 43.9628 98.1178 42.1698C98.4688 40.3768 100.047 37.8249 100.018 37.6299C99.9888 37.4349 99.6668 36.5189 96.4528 36.4999C93.2388 36.4809 90.4618 36.9089 90.1408 37.4739C89.8198 38.0389 89.4688 39.3639 88.7968 40.6499C88.1248 41.9359 80.3218 53.5489 78.2758 56.5489C77.2238 58.0879 76.3178 59.3159 75.6748 60.1539C75.6748 60.1539 75.6458 60.2119 75.5578 60.3099L74.6808 61.4209C74.2428 61.9669 73.7748 62.4538 73.5408 62.4538C73.3658 62.4538 73.0438 61.0508 73.5988 59.1418C74.7678 55.1088 77.5438 48.8349 77.5148 48.6199C77.5148 48.5029 78.0408 47.4119 75.7028 46.8469C73.4238 46.2819 72.6048 47.2169 72.4008 47.2169C72.1968 47.2169 72.0498 47.5479 72.0498 47.5479C72.0498 47.5479 74.5918 40.4949 67.1988 40.4949C62.5818 40.4949 56.2108 43.8658 53.0538 46.9049L42.2988 50.8209L37.1258 52.7108C37.0088 52.6328 36.8918 52.5359 36.7748 52.4579C27.8318 46.0869 11.2908 41.5849 11.9928 33.0319C12.2558 29.9149 13.8628 21.7309 43.7598 11.7939C68.3668 3.70785 87.9478 5.94885 91.3378 10.9169C96.1888 18.0089 80.8458 31.1809 55.4208 33.0909C45.7188 33.8119 40.6328 31.3179 39.3478 30.3829C38.0038 29.4089 37.7988 29.3499 37.3018 29.5449C36.4838 29.8369 37.0098 30.7139 37.3018 31.2209C38.0618 32.5459 41.1888 34.8839 46.4788 36.0339C51.1548 37.0469 62.5228 37.6119 76.2878 34.0659C91.6888 30.0909 103.73 19.0429 100.194 9.78785C96.6538 0.394852 73.2738 -2.70315 51.1508 2.53785C37.9998 5.65585 23.7378 10.5659 13.4798 16.9569C1.29376 24.5559 -0.635242 31.1609 0.153758 33.9279C2.98876 43.7479 23.2998 50.1389 31.4238 54.8739L30.3138 55.2829C26.2518 56.6269 10.7628 62.0249 6.90476 67.7339C2.52076 74.2029 7.60576 78.8399 10.9668 79.4639C21.3998 81.3929 32.1258 77.9249 37.8828 72.1959C43.6398 66.4669 42.9388 59.0239 40.2788 55.6149C40.2475 55.5688 40.2078 55.5291 40.1618 55.4979L43.3468 54.2509C45.4218 53.4329 47.4678 52.6729 49.2208 52.0489C48.2268 53.8609 47.4968 56.0238 47.1458 59.1409C46.7078 62.8039 48.9578 67.5579 51.9098 69.4289C53.2248 70.2469 54.7738 70.2669 55.7678 70.2669C59.2168 70.2669 60.7658 68.3579 62.4898 66.0969C64.5938 63.3299 66.4938 60.1149 66.4938 60.1149C66.4938 60.1149 64.1268 68.8049 70.5558 68.8049C72.8938 68.8049 75.2608 66.7789 76.3128 65.7459C76.3128 65.7649 76.3708 65.7069 76.4878 65.5709L76.8678 65.1619V65.1229C77.8028 64.0319 79.9068 61.5569 83.0338 57.4459C87.0668 52.1459 90.9538 45.5209 90.9538 45.5209C90.9538 45.5209 91.3048 47.1379 92.5028 49.8269C93.2038 51.4049 94.6658 53.1388 95.8348 54.8148C94.8998 55.6918 94.3148 56.1789 94.3148 56.1789L94.3438 56.1989C93.5838 56.8619 92.7658 57.5819 91.8598 58.2839C88.6748 60.8169 84.8748 63.7199 84.3488 64.5579C83.7348 65.5519 83.8808 66.2729 85.0498 66.8569C85.8968 67.2859 87.4168 67.3439 88.9658 67.2859C91.8298 67.1499 93.8458 66.6819 94.8398 66.3899C96.3888 66.0199 98.2008 65.4549 99.8958 64.6169C103.023 63.0779 104.923 60.8759 104.747 57.9729C104.659 56.3749 103.87 54.7779 102.906 53.2769C103.198 53.0039 103.461 52.7319 103.753 52.4589C108.692 47.6459 112.52 42.3659 112.52 42.3659C112.52 42.3659 112.871 43.9829 114.069 46.6719C114.654 48.0359 115.852 49.5169 116.904 50.9589C112.257 53.4719 109.393 56.3949 108.37 58.3049C106.529 61.8509 107.961 63.4489 110.679 63.8189C111.906 63.9939 113.66 63.6049 114.946 63.2339C116.583 62.8829 118.511 62.2789 120.353 61.3829C123.48 59.8439 126.49 57.6999 126.315 54.7969C126.227 53.4719 125.701 52.1669 124.971 50.8999C128.916 49.8089 134.002 49.2048 140.489 49.7108C154.4 50.8018 157.147 56.5889 156.621 59.0249C156.095 61.4609 153.173 62.7859 152.208 63.1949C151.243 63.6039 150.922 63.7409 151.01 64.0329C151.127 64.4619 151.594 64.4419 152.413 64.3639C153.553 64.2279 159.719 62.3959 159.982 57.9149C160.42 52.1869 152.237 45.9319 137.771 45.9899L137.773 45.9888ZM30.4598 70.1109C25.8418 73.4619 19.4128 74.7289 16.6368 73.6569C13.6558 72.5069 14.8248 67.5579 20.4948 64.0119C23.9428 61.8489 28.3858 59.8419 31.3368 58.6149L34.2008 57.4649C34.4058 57.3869 34.5218 57.3479 34.5218 57.3479L35.2228 57.0559C37.2978 62.1219 35.3118 66.5839 30.4598 70.1109ZM64.0678 54.8739C62.4608 57.4849 59.0998 64.1679 57.0538 63.7979C55.3008 63.4859 54.2188 58.4198 56.7028 53.4128C57.9598 50.8988 60.6188 47.8989 62.1678 46.7299C64.6808 44.8599 67.4578 44.2358 68.1298 44.9958C68.9768 45.9898 65.0608 53.2369 64.0678 54.8739ZM91.8018 63.7199C91.1298 63.9539 90.4868 64.1099 90.1948 63.9929C89.9908 63.9149 90.4868 63.6029 90.4868 63.6029C90.4868 63.6029 93.9648 61.1089 95.3378 59.9789L98.0558 57.6599V57.9128C98.0558 60.8938 93.7308 62.9019 91.8018 63.7199ZM113.194 60.4659C112.697 60.2319 112.785 59.4528 114.451 57.0168C115.094 56.0618 116.614 54.4639 119.215 52.9249C119.507 53.5489 119.712 54.1518 119.683 54.7178C119.654 58.4778 115.62 59.8809 113.194 60.4659Z" />
</svg>
