<svg viewBox="0 0 80 80" fill="none" xmlns="http://www.w3.org/2000/svg">
<path d="M79.4272 39.1017C79.2252 25.7012 71.7842 12.6711 60.3702 5.80248C51.3131 0.179653 39.9328 -1.40282 29.6636 1.25708C14.1755 5.12908 1.88615 19.304 0.303677 35.3307C-1.64916 50.5157 5.96017 66.3067 18.9903 74.1518C31.7847 82.2325 49.0909 81.8958 61.616 73.411C72.8617 66.0711 79.8649 52.6369 79.4272 39.1017ZM41.953 74.0844C23.8724 75.9026 6.43154 60.4819 5.9265 42.1993C4.57972 27.3847 14.2429 12.7047 28.1148 7.82265C47.5421 -0.0223639 71.3802 14.4556 73.3667 35.4317C76.498 54.354 60.9426 73.5457 41.953 74.0844Z" fill="black"/>
<path d="M30.2696 37.8896C38.788 30.8527 47.1044 23.5801 55.7911 16.7788C51.2121 23.8494 46.532 30.8527 41.9866 37.9233C38.0809 37.9233 34.1753 37.9233 30.2696 37.8896Z" fill="black"/>
<path d="M37.4749 41.7954C41.4143 41.7954 45.3199 41.7954 49.2256 41.8627C40.6399 48.8324 32.3571 56.1723 23.6367 62.9736C28.2158 55.8693 32.8959 48.866 37.4749 41.7954Z" fill="black"/>
</svg>
