<svg viewBox="0 0 134 80" fill="none" xmlns="http://www.w3.org/2000/svg">
<mask id="mask0_305_8" style="mask-type:luminance" maskUnits="userSpaceOnUse" x="0" y="0" width="134" height="80">
<path d="M0 0H133.333V80H0V0Z" fill="white"/>
</mask>
<g mask="url(#mask0_305_8)">
<path fill-rule="evenodd" clip-rule="evenodd" d="M66.6667 0C48.8889 0 37.7778 8.88889 33.3333 26.6667C40 17.7778 47.7778 14.4444 56.6667 16.6667C61.7383 17.9333 65.363 21.6148 69.3753 25.6864C75.9111 32.321 83.4765 40 100 40C117.778 40 128.889 31.1111 133.333 13.3333C126.667 22.2222 118.889 25.5556 110 23.3333C104.928 22.0667 101.304 18.3852 97.2914 14.3136C90.7556 7.67901 83.1901 0 66.6667 0ZM33.3333 40C15.5556 40 4.44444 48.8889 0 66.6667C6.66667 57.7778 14.4444 54.4444 23.3333 56.6667C28.4049 57.9358 32.0296 61.6148 36.042 65.6864C42.5778 72.321 50.1432 80 66.6667 80C84.4444 80 95.5556 71.1111 100 53.3333C93.3333 62.2222 85.5556 65.5556 76.6667 63.3333C71.5951 62.0667 67.9704 58.3852 63.958 54.3136C57.4222 47.679 49.8568 40 33.3333 40Z" fill="#9BA8BA"/>
</g>
</svg>
