<svg viewBox="0 0 80 80" fill="none" xmlns="http://www.w3.org/2000/svg">
<path fill-rule="evenodd" clip-rule="evenodd" d="M0 40V80H40H80V40V0H40H0V40ZM64.47 36.813C66.502 37.321 68.051 38.223 69.473 39.696C70.21 40.483 71.301 41.918 71.391 42.261C71.416 42.363 67.937 44.699 65.829 46.007C65.753 46.058 65.448 45.728 65.105 45.22C64.077 43.722 62.997 43.074 61.346 42.96C58.921 42.795 57.359 44.065 57.371 46.185C57.371 46.807 57.46 47.175 57.714 47.684C58.247 48.789 59.238 49.449 62.349 50.795C68.076 53.259 70.527 54.884 72.051 57.195C73.753 59.773 74.134 63.887 72.978 66.947C71.708 70.274 68.559 72.534 64.127 73.284C62.756 73.525 59.505 73.487 58.032 73.22C54.819 72.649 51.772 71.061 49.892 68.979C49.156 68.166 47.721 66.046 47.809 65.893C47.847 65.842 48.177 65.639 48.546 65.423L51.517 63.709L53.815 62.376L54.298 63.087C54.971 64.116 56.444 65.525 57.333 65.995C59.885 67.341 63.39 67.15 65.117 65.601C65.853 64.928 66.158 64.23 66.158 63.201C66.158 62.274 66.044 61.868 65.561 61.169C64.939 60.28 63.669 59.531 60.063 57.969C55.936 56.191 54.158 55.086 52.533 53.334C51.593 52.318 50.705 50.693 50.336 49.334C50.031 48.204 49.955 45.372 50.196 44.229C51.047 40.242 54.056 37.461 58.399 36.635C59.808 36.368 63.086 36.47 64.47 36.813ZM45.689 40.153L45.714 43.429H40.508H35.302V58.223V73.017H31.62H27.937V58.222V43.429H22.73H17.524V40.216C17.524 38.438 17.562 36.953 17.613 36.914C17.651 36.863 23.988 36.838 31.67 36.85L45.651 36.888L45.689 40.151V40.153Z" fill="#007ACC"/>
</svg>
