<svg viewBox="0 0 70 80" fill="none" xmlns="http://www.w3.org/2000/svg">
<path fill-rule="evenodd" clip-rule="evenodd" d="M14.3312 67.3788L0 58.4125V20.0915L35.047 0L69.2448 20.1249V60.4335L34.504 80L22.4429 72.4538V56.2967V54.091L15.903 49.9992V29.2181L34.8388 18.3629L53.3418 29.2516V51.0273L38.6925 59.2778V50.5078C43.0838 48.8168 46.2358 44.4701 46.2358 39.3402C46.2358 32.7281 40.9992 27.4172 34.6226 27.4172C28.2456 27.4172 23.0093 32.7281 23.0093 39.3402C23.0093 44.4701 26.161 48.8168 30.5523 50.5078V67.1247L34.7408 69.7452L60.426 55.2788V25.1675L34.9892 10.1982L8.81886 25.2009V53.5274L14.3312 56.9763V67.3788ZM34.6226 33.862C37.5082 33.862 39.7911 36.3482 39.7911 39.3402C39.7911 42.3322 37.5082 44.8184 34.6226 44.8184C31.7369 44.8184 29.4537 42.3322 29.4537 39.3402C29.4537 36.3482 31.7369 33.862 34.6226 33.862Z" fill="#9CA8BA"/>
</svg>
