<svg viewBox="0 0 77 86" fill="none" xmlns="http://www.w3.org/2000/svg">
<path d="M38.3638 77.1821C58.4469 77.1821 74.7275 60.9015 74.7275 40.8184C74.7275 20.7352 58.4469 4.45459 38.3638 4.45459C18.2806 4.45459 2 20.7352 2 40.8184C2 60.9015 18.2806 77.1821 38.3638 77.1821Z" fill="#9BA8BA"/>
<path d="M38.7089 42.3222L3.45453 3" stroke="#9BA8BA" stroke-width="6" stroke-linecap="round"/>
<path d="M38.7089 42.3222L73.9633 3" stroke="#9BA8BA" stroke-width="6" stroke-linecap="round"/>
<path d="M38.7089 42.3218V82.9999" stroke="#9BA8BA" stroke-width="6" stroke-linecap="round"/>
<path d="M38.3638 52.4545C43.9871 52.4545 48.5457 47.896 48.5457 42.2727C48.5457 36.6494 43.9871 32.0908 38.3638 32.0908C32.7405 32.0908 28.1819 36.6494 28.1819 42.2727C28.1819 47.896 32.7405 52.4545 38.3638 52.4545Z" fill="#9BA8BA" stroke="#9BA8BA" stroke-width="4"/>
</svg>
